<svg id="Capa_1" data-name="Capa 1" xmlns="http://www.w3.org/2000/svg" viewBox="0 0 534.35 536.46"><path d="M307.08,275.47c-.31,8.5,2.16,16.44,5.13,24.21,6.19,16.19,14,31.61,22.46,46.72,2.75,4.92,5.3,10,7.92,15a9.5,9.5,0,0,1,.63,1.55,3.61,3.61,0,0,1-1.23,4.32c-1.53,1.16-3.1.76-4.46-.29a23.22,23.22,0,0,1-3.76-3.85c-8.62-10.66-16.65-21.75-24.62-32.89-8.65-12.1-17.95-23.71-27.29-35.29A369.48,369.48,0,0,0,251.51,261a54.16,54.16,0,0,0-12.83-9.76c-2.74-1.39-3.63-.83-3.77,2.31-.26,5.6,1.05,11,2.56,16.28,3.35,11.69,8.71,22.52,14.35,33.23,4.57,8.66,9.09,17.36,14.54,25.51,7.93,11.85,15.8,23.73,24.26,35.21,5.8,7.88,11.7,15.7,16.63,24.19a9.19,9.19,0,0,1,1.15,3.32,3.69,3.69,0,0,1-4.92,4.14,9.5,9.5,0,0,1-3.65-2.5c-12.65-12.59-24.92-25.52-36.43-39.19-10-11.84-19.77-23.85-29.7-35.73-5.49-6.55-11.41-12.73-17.28-18.95a76.58,76.58,0,0,0-14-11.84,17.5,17.5,0,0,0-4.47-2.24c-2.88-.89-4.94.12-5.74,3a20.28,20.28,0,0,0,.6,11.54,136.24,136.24,0,0,0,10.56,25,207.09,207.09,0,0,0,15.89,25.35c9.16,12.33,18.41,24.6,28.34,36.35,7.15,8.46,14.71,16.59,21.43,25.42a15.74,15.74,0,0,1,2.28,4,3.16,3.16,0,0,1-.79,3.59,3.39,3.39,0,0,1-3.58.93c-2.64-.83-4.53-2.76-6.51-4.53-9.18-8.25-17.69-17.19-26.58-25.73-13.37-12.83-26.78-25.62-42.09-36.21-6.58-4.55-13.18-9.07-20.68-12a46.45,46.45,0,0,0-4.63-1.38,2.18,2.18,0,0,0-2.9,1.58,7.55,7.55,0,0,0-.12,4.39c2,8.94,6,17.08,10.72,24.82,10.12,16.47,22.6,31,36.55,44.35,12.23,11.72,25.11,22.64,38.33,33.21,8.46,6.77,16.91,13.57,25.27,20.47,3.3,2.72,6.34,5.74,9.49,8.62a10.51,10.51,0,0,1,2.06,2.63c1,1.82,1.57,3.76.26,5.61a5.33,5.33,0,0,1-5.45,2c-4.43-.64-8.69-2-13-3-19.3-4.56-38.53-9.44-58.09-12.83-5.86-1-11.68-2.28-17.67-2.21-1.59,0-3.72-.38-4.43,1.13-.78,1.68,1.07,3,2.11,4.23,6.07,7.21,13.54,12.7,21.67,17.33,8.4,4.78,16.86,9.45,25.51,13.78,8.89,4.45,18.16,8,27.37,11.65,16.29,6.5,33,11.93,49.14,18.81,10.8,4.6,21.2,10,31.55,15.45a205,205,0,0,1,18.44,10.44c9.78,6.55,19.45,13.25,28.11,21.31,11.75,10.93,23.55,21.79,35.91,32,7.86,6.53,15.47,13.36,23,20.27a119.33,119.33,0,0,0,17.3,13.42,5,5,0,0,1,.6.43c1.5,1.19,1.86,2.71,1,4.06a2.87,2.87,0,0,1-4.11.77c-4.51-2.95-9.32-5.46-13.33-9.12-7-6.35-14.23-12.34-21.35-18.5-8.47-7.33-17.14-14.45-25.5-21.92-8.73-7.81-16.93-16.21-26.16-23.43a226,226,0,0,0-33.56-22c-16-8.5-32.21-16.51-49.2-22.87-10.45-3.9-20.88-7.88-31.34-11.75a324.31,324.31,0,0,1-50.6-23.73c-5.2-3-10.45-6-15.37-9.43-.69-.49-1.3-.94-2,.14-4.23,6.81-9.92,12.54-14.48,19.09-11.23,16.12-22.92,31.94-32.6,49.09-.89,1.56-1.83,3.09-2.68,4.67-1.13,2.1-3.13,3-4.88,2s-2.18-3-1-5.06c1.67-3,3.5-6,5.25-9,9.65-16.44,21-31.75,32.15-47.14,4.18-5.76,9.29-10.8,13.24-16.77.89-1.34.74-2.08-.34-3.13a71,71,0,0,1-8.07-8.47,14.76,14.76,0,0,1-2.51-4.95,6.74,6.74,0,0,1,4.2-8.41c4-1.62,8.15-1.47,12.29-1.06,5,.49,10,1.3,14.91,2.27a2.76,2.76,0,0,0,2.71-.75c4.11-4,8.62-7.63,13.05-11.32a48.1,48.1,0,0,0,6.23-6.37c.81-1,.68-1.56-.22-2.29-4.87-3.94-9.75-7.85-14.36-12.09-3-2.72-5.92-5.47-8.81-8.27-1-1-1.54-1.21-2.23.3a6.38,6.38,0,0,1-3.07,2.88c-10.53,5.26-21.07,5.67-31.84.54-12.76-6.08-20.41-16.1-23.79-29.66-1.19-4.76-.05-4-5.37-4.64-7-.8-13.83-2.1-19.89-6.06-8.9-5.83-13.73-14.15-14.87-24.57-.41-3.78.87-7.48,2.5-10.94s3.43-7,5.38-10.4c.62-1.06.87-2.09-.28-3-5.53-4.21-8.87-9.92-11.12-16.37-2.39-6.81-3.88-13.86-2.6-21,2.48-13.78,10.16-23.56,23.47-28.57,1.22-.46,1.94-.82,1.29-2.35-4.71-11.25-4.4-22.58-.31-33.91a5.25,5.25,0,0,0,.15-3.23c-1.74-7.17-3.23-14.4-5.12-21.53a117.3,117.3,0,0,0-8.09-22.35,19.89,19.89,0,0,0-5.37-7c-2.7-2.12-4.48-1.61-5.88,1.6a54,54,0,0,0-2.91,10.18,273.12,273.12,0,0,0-4.78,34.4c-.64,7.4-1.44,14.78-1.69,22.22-.31,9.47-.85,18.93-1.47,28.38-.61,9.27-1.2,18.53-1.49,27.82s-.92,18.67-1.45,28c-.17,3.09-.46,6.17-.74,9.25a2.75,2.75,0,0,0,1.51,2.88q9.4,5.86,7.87,16.91a31.35,31.35,0,0,1-3.63,11.25,15.69,15.69,0,0,1-10.87,8A2.12,2.12,0,0,0,82,386.08c.06,6.63-.2,13.26-.34,19.88a48.42,48.42,0,0,1-6.59,23.87c-5.73,9.86-12,19.46-16.76,29.82-3.5,7.53-6.9,15.1-11,22.34-2.84,5-5.64,10.05-8.49,15.06-1.57,2.76-2.48,5.8-3.71,8.71a26.91,26.91,0,0,1-1.43,3,2.94,2.94,0,0,1-3.77,1.47,3.08,3.08,0,0,1-1.56-3.77A87.52,87.52,0,0,1,35,491.13,328.59,328.59,0,0,0,51.28,459c3.65-8.43,8.53-16.23,13.16-24.15a137.08,137.08,0,0,0,8.25-15.4,21.63,21.63,0,0,0,1.74-7.19c.28-4.88.76-9.73.6-14.64a111.51,111.51,0,0,1,.52-11.69c.12-1.58-.17-2.48-1.85-3a27.59,27.59,0,0,1-12.34-8c-4.63-5.34-4.91-11.27-2.63-17.59.6-1.68,1.3-3.24,1-5.18a3.16,3.16,0,0,1,2.74-3.5c6.35-1.36,12.43-3.94,19-4.1,1.21,0,1.57-.56,1.66-1.7.69-9.2.83-18.43,1.11-27.65.35-11.39.63-22.78,1.46-34.14.7-9.64,1.12-19.28,1.59-28.93.52-10.88,1.62-21.73,2.78-32.56a219.85,219.85,0,0,1,5.63-32.95,27.89,27.89,0,0,1,2.35-6.25c3.54-6.55,10.28-7.68,15.84-2.73,4.43,3.94,7.21,8.93,9.41,14.32a175.57,175.57,0,0,1,9.5,32.23c.12.58,0,1.43.64,1.64s1-.58,1.4-1c7-7.77,15.6-11.09,26-9.34,1.77.3,3.51.79,5.25,1.26,1.08.29,1.58-.07,1.83-1.16,3.86-16.26,10.68-31.43,17.25-46.68,3.44-8,8.56-15.08,13.22-22.4,3.8-6,7.85-11.76,13-16.66A46.49,46.49,0,0,1,224,120.94c10.11-4.62,16.82,0,18.31,10.65,1.27,9.16-.25,18.16-2.13,27.1a127.37,127.37,0,0,1-8,25.33c-.65,1.49-.34,2.13,1.28,2.34a46,46,0,0,1,11.81,3.19c1.58.66,2.38.28,3.13-1.09,4-7.29,8.67-14.17,13.15-21.16,7.75-12.11,17.15-22.59,29.68-30a25.78,25.78,0,0,1,8.37-3.47c8.52-1.56,15.48,5,14.31,13.6-1.56,11.41-6.1,21.75-12.16,31.32-8.47,13.34-16.7,26.84-25.77,39.8-.28.38-.76.75-.55,1.3s.62.29,1,.25a36.94,36.94,0,0,1,16.29,2.06c2.56.9,4.08.34,6.09-1.52,10.24-9.46,20.58-18.85,33.32-25a36.57,36.57,0,0,1,11.43-3.75c7.25-.9,16.15,4.82,13.67,14.67a58.81,58.81,0,0,1-12,22.89c-8.57,10.5-16.47,21.59-26.56,30.79-1.83,1.66-1.73,1.8.23,3.34a71.05,71.05,0,0,1,8,7.22c1.06,1.14,1.92,1.24,3.14.24,10.2-8.34,21.78-14.18,34.09-18.66A34.12,34.12,0,0,1,376.29,250c7.25.1,11.22,5,9.79,12-1.22,6-4.1,11.26-7.44,16.31-5.66,8.55-12.76,15.76-20.49,22.43-3.59,3.11-3,2.37-.54,5.6,5.72,7.41,10.73,15.33,16.22,22.91,9.75,13.46,20.24,26.35,30.06,39.74,8.75,11.94,17.44,23.94,25.76,36.2,6.59,9.71,11.24,20.37,15.63,31.19,3.41,8.38,7,16.71,10.84,24.89,5.72,12.09,13.22,23.05,21.67,33.46a256.06,256.06,0,0,0,20.71,22.34c7.69,7.47,15.85,14.41,24,21.32,12,10.1,24.7,19.31,36.63,29.49,1.31,1.12,2.67,2.23,3.19,4a3.4,3.4,0,0,1-2.89,4.64,5,5,0,0,1-5.34-3.33,3.9,3.9,0,0,0-1.43-2.08c-12.23-9.72-24.67-19.16-36.66-29.16-7.33-6.11-14.56-12.33-21.42-19a255,255,0,0,1-18.8-19.54c-10-12-19.32-24.44-25.94-38.64q-7.54-16.17-14.22-32.74c-4.69-11.63-11.2-22.22-18.59-32.31-6.84-9.36-13.45-18.88-20.34-28.2-5.82-7.87-11.94-15.52-17.84-23.34-8.7-11.53-16.77-23.52-25.3-35.16A296.72,296.72,0,0,0,324,277.89c-3.56-3.54-7-7.21-11.15-10.07-3.95-2.7-5.37-2-5.72,2.82C307,272.24,307.08,273.86,307.08,275.47Zm11,55.27.39-.23c-1.84-3.92-3.72-7.81-5.52-11.74-6-13.15-11.88-26.36-12.85-41.1-.32-4.87-.16-9.69,2.09-14.16a7.29,7.29,0,0,1,7.57-4.29c1.12.08,1.61-.18,1.51-1.4a77.44,77.44,0,0,0-.56-8c-.9-4.82-2-9.64-6-13.09a29.87,29.87,0,0,0-5.14-3.67c-9.56-5.27-19.38-8.24-30.12-3.35-3.12,1.42-5.83-.45-6.3-4-.25-2-.44-3.94-.79-5.89-1.55-8.63-5.53-15.69-13.14-20.46-8.23-5.15-17.1-7.47-26.77-6.23-12.09,1.55-21.47,7.67-28.29,17.59A38.92,38.92,0,0,0,188,228.1c-.67,5.25-4.18,6.81-8.55,3.84-.25-.17-.49-.37-.74-.55C173.89,228,169,224.71,163.3,223c-8.9-2.69-17-1.18-23.17,6.07-7,8.21-9.25,18.07-8.38,28.66A33.76,33.76,0,0,0,136,271.64c1.64,2.92.49,5.29-2.67,6.38-1.93.67-3.88,1.31-5.78,2.06-8.94,3.52-14.21,10.48-16.87,19.31-2.18,7.24-.76,14.51,1.74,21.51,1.81,5.1,4.45,9.68,8.91,13a13.45,13.45,0,0,1,1.35,1.27c2.66,2.62,3.15,5.05,1.43,8.4-1.89,3.69-4.06,7.24-5.84,11s-2.85,7.86-1.64,12.07c2.82,9.8,9,16.37,18.93,19.18a53.53,53.53,0,0,0,13,1.88c3.3.11,5.21,1.52,6.17,4.65.63,2.07,1.13,4.18,1.67,6.28a35.43,35.43,0,0,0,8.77,16.18c6.24,6.42,13.84,10.59,22.91,11.06a24.14,24.14,0,0,0,16.37-4.93c1.27-1,1-1.5,0-2.38-2.63-2.45-5.31-4.86-7.76-7.49-3.53-3.81-7.09-7.6-10.36-11.67-9.62-11.94-18.79-24.18-25-38.37-2.18-5-4.23-10.09-4.89-15.56-.81-6.74,3.19-14,12.42-11.57a58.4,58.4,0,0,1,15.11,6.61c15.14,9,28.74,20.05,41.51,32.14,2.1,2,4.27,3.91,6.41,5.86a4.21,4.21,0,0,0-1-1.87c-10.45-13.69-21.27-27.11-29.85-42.15-6.07-10.64-11.38-21.6-14.93-33.35-1.64-5.41-2.15-11-.07-16.43a10,10,0,0,1,9.86-6.82c3.51,0,6.53,1.34,9.37,3.16a86.53,86.53,0,0,1,17.81,15.09c5,5.58,10.32,10.89,15.13,16.64,5.41,6.46,10.66,13.05,16.08,19.5q11.29,13.44,22.75,26.75c1.42,1.67,2.93,3.26,4.4,4.88a.8.8,0,0,0-.09-.79c-4.7-6.85-9.35-13.73-14.11-20.53-11.67-16.67-21.24-34.51-29.79-52.92a104.89,104.89,0,0,1-9.24-30.12,24.26,24.26,0,0,1,.61-10.87c1.4-4.34,4.5-6.11,8.91-5a17.79,17.79,0,0,1,3.32,1.2c6.95,3.2,12.47,8.35,17.76,13.63a375.37,375.37,0,0,1,28.65,32.43c8.06,10.14,16.13,20.26,23.8,30.71C313.66,324.64,315.86,327.69,318.07,330.74ZM235.73,140c-.27-3.69.21-6.49-.54-9.24-1.25-4.61-3.27-5.71-7.63-3.86a38.8,38.8,0,0,0-14.63,11.18c-8.11,9.69-14.63,20.46-20.52,31.58-4.7,8.86-8.18,18.31-11.92,27.62a125.2,125.2,0,0,0-6.46,19c-.84,3.66-1.53,3,2.15,5.22.9.53,1.77,1.13,2.67,1.68,2.71,1.7,2.7,1.7,3.51-1.54,2-8.13,5.49-15.56,11.56-21.49a48.4,48.4,0,0,1,28.49-14,2.92,2.92,0,0,0,2.67-2.13c1.25-3.3,2.7-6.53,3.84-9.87C232.8,162.78,235.52,151.18,235.73,140Zm71.33,7.29c.06-5.13-2.21-7.13-6.33-6.59a10.49,10.49,0,0,0-3.66,1.27,74.78,74.78,0,0,0-25.36,22.23c-6.38,8.77-12.35,17.83-18,27.08-.95,1.55-.75,2.3.71,3.24a30.74,30.74,0,0,1,11.42,13.15,48.08,48.08,0,0,1,2.76,7.49c.1.39.07,1,.62,1s.67-.48.92-.81.35-.51.52-.77c6.23-9.18,12.06-18.62,18.06-27.94,5.17-8,10.66-15.84,14.11-24.84C304.74,156.81,306.68,151.79,307.06,147.3Zm43.74,56.43a4.36,4.36,0,0,0-3.63-4.71c-3.18-.76-6.13.09-9,1.3a77.94,77.94,0,0,0-20.53,12.54c-4.67,4-9.76,7.41-14.2,11.67-1.06,1-1.18,1.63.25,2.49a29.28,29.28,0,0,1,8.32,6.75c3.45,4.39,4.72,9.61,5.86,14.9.15.7-.11,1.74.68,2s1.19-.76,1.68-1.28c4.4-4.63,8.27-9.7,12.19-14.73,4.57-5.85,9.63-11.34,13.34-17.83A38.91,38.91,0,0,0,350.8,203.73ZM379.42,260c.11-1.71-.46-2.58-2-2.9a16.61,16.61,0,0,0-6.62.4c-7,1.36-13.3,4.66-19.72,7.59a99.56,99.56,0,0,0-16.59,10.22c-1.39,1-1.4,1.8-.18,3.08,2.66,2.77,5.17,5.68,7.65,8.61,2.72,3.21,5.37,6.48,8,9.79.92,1.17,1.64,1.26,2.65.14a27.58,27.58,0,0,1,2.82-2.69,87.77,87.77,0,0,0,19.39-22.59A34,34,0,0,0,379.42,260ZM78.4,377.31c5.94,0,8.36-1.33,10.63-5a22.67,22.67,0,0,0,2.67-8.07,10.93,10.93,0,0,0-13.37-12.67c-2.84.66-5.63,1.58-8.49,2s-4.21,2-5.1,4.51a22.42,22.42,0,0,0-1.35,6.15,6.8,6.8,0,0,0,1.09,4.25A19,19,0,0,0,78.4,377.31ZM275.22,479.89l.23-.52c-2.63-2.33-5.19-4.74-7.91-7-8.79-7.16-17.64-14.22-26.43-21.37-1-.82-1.75-.81-2.49.17-4.28,5.73-10.22,9.69-15.4,14.46-.49.44-1.41.71-1.27,1.45s1.13.59,1.75.73c16,3.6,32.05,7.1,48,11.16Z" transform="translate(-28.22 -119.14)"/><path d="M121.64,161.12a35.74,35.74,0,0,1,2-10.67,9.86,9.86,0,0,1,3-3.7c6.2-5.51,17.15-3.77,21,3.28s.6,21.62-12.4,22.24a11.34,11.34,0,0,1-9.09-3.48C124,166.35,121.21,164,121.64,161.12ZM134.87,166c5.22,0,9.1-5.53,7.88-11.06a5.82,5.82,0,0,0-2.41-3.6c-3.94-2.84-11-.83-11.4,4.27a30,30,0,0,1-.53,3.1C127.72,162.52,130.89,166.46,134.87,166Z" transform="translate(-28.22 -119.14)"/><path d="M357.31,156.25c-.2,3.32-1,6.63-3.17,9.26-4.49,5.35-11.72,4.56-16.1-.34-2.33-2.6-2.68-6.44-2.67-10a12,12,0,0,1,3.11-8.16c4.73-5.19,14.72-3.36,17.54,3.17A16.29,16.29,0,0,1,357.31,156.25Zm-6.71-.07a7.32,7.32,0,0,0-.36-2.74c-.78-1.9-2-2.62-4.2-2.71s-3,1-3.68,2.74c-1.1,2.87.75,5.4.85,8.12,0,0,.08.1.13.13,2.12,1.61,4.83,1.51,6.14-.71A8.91,8.91,0,0,0,350.6,156.18Z" transform="translate(-28.22 -119.14)"/></svg>