<svg id="Capa_1" data-name="Capa 1" xmlns="http://www.w3.org/2000/svg" viewBox="0 0 421.5 596.65"><defs><style>.cls-1{fill:#0c0c0c;}</style></defs><path class="cls-1" d="M210.79,94c-15.48.27-31,.36-46.44.86-11.09.35-22.17.2-33.25.34-2.14,0-3.42-1-3.46-2.56S129,90.08,131.06,90c8.36-.16,16.72-.14,25.07-.52q16.43-.74,32.86-1c14.74-.24,29.47-.93,44.21-.52,13.12.37,26.24.76,39.35,1.39A95.62,95.62,0,0,1,308,98.31c9.44,4.33,18.83,8.87,27.28,15A195.74,195.74,0,0,1,355,129.42a191,191,0,0,1,39.88,54.3c5.63,11.37,11.25,22.74,17.12,34,4.64,8.89,8.94,17.95,13.71,26.78,3.74,6.91,7.65,13.73,11.2,20.75a183.56,183.56,0,0,1,10.06,25.14c3.69,11.1,7.44,22.18,10.43,33.49a21.15,21.15,0,0,1,.9,5.48,11.81,11.81,0,0,1-6.7,11.13c-3.77,2-3.76,2-.27,4.29a65.26,65.26,0,0,1,17.24,16.67,163.6,163.6,0,0,1,27.2,65.29A73.78,73.78,0,0,1,497,439.85c0,1.38.38,2,1.87,2a32.73,32.73,0,0,1,7.38.75c5.22,1.32,8,5.08,9.76,9.84a50.61,50.61,0,0,1,2.75,16.42c.41,17.28.13,34.56-1.1,51.8-1.16,16.12-2.18,32.24-3,48.37-.6,12.56-1,25.12-1.44,37.68-.35,10.78-.22,21.55-.49,32.33-.27,11,.19,21.91.2,32.87,0,1.46-.43,1.93-1.87,2-4.66.25-4.59.29-4.75-4.35-.47-12.94-.37-25.89-.21-38.83.19-14.61.61-29.22,1.09-43.83q.57-17.16,1.56-34.31c.79-13.78,2-27.54,2.63-41.32.7-15.65,1.21-31.33.07-47a36.55,36.55,0,0,0-2.18-10.13,7.64,7.64,0,0,0-7.53-5.5c-14.18-.46-28.35,0-42.52.53-7.49.26-15,.7-22.44,1.21-7.28.51-14.55,1.18-21.83,1.79-8.27.69-16.57.91-24.85,1.36-14.52.79-29.07,1.09-43.54,2.77A116.65,116.65,0,0,1,331,457.54c-3.29-.06-6.55-.35-9.81-.7-1.64-.17-2.19.3-2.33,1.91-.57,7-1.27,13.93-1.87,20.9-.91,10.61-2.57,21.13-3.82,31.7-1.64,13.77-3.16,27.55-4,41.39-.79,12.29-1.82,24.57-2.52,36.87-.82,14.46-1.78,28.91-2.38,43.39-.69,16.47-.41,32.94-.26,49.41,0,1.64-.37,2.13-2,2.09-4.57-.11-4.54,0-4.61-4.59-.26-16.35-.39-32.71.24-49,.44-11.38,1.31-22.74,2-34.11.56-9.27,1.1-18.54,1.72-27.8.62-9.07,1.26-18.15,2-27.21q1-11.84,2.34-23.65c1.05-9.09,2.35-18.16,3.45-27.25.91-7.49,1.69-15,2.52-22.5.4-3.63.78-7.26,1.21-10.89a16.45,16.45,0,0,1,1.31-4.23A3.47,3.47,0,0,1,318,451a33.26,33.26,0,0,1,3.88.26c1.4.23,1.64-.37,1.75-1.6,1.36-16.6,2.88-33.16,7.23-49.33,2.27-8.41,6.27-16,11-23.19a143.43,143.43,0,0,1,14.22-18.53c1.39-1.52,3-2.75,4.48-4.16a2,2,0,0,0,.7-2.29c-2.71-7.19-3.47-14.8-4.72-22.3-.1-.57.07-1.32-.65-1.61s-1.25.3-1.72.78a171.37,171.37,0,0,1-24.54,19.76,24.32,24.32,0,0,1-11.05,4.52c-7.76.89-13.79-3.92-14.53-11.69-.84-8.82,1.82-16.75,6.2-24.22a45.65,45.65,0,0,1,6.7-9.1c.89-.9.84-1.55-.35-2.11-4.5-2.07-9.09-3.92-13.7-5.74-1.14-.46-1.86.3-2.68.83a177.11,177.11,0,0,1-20.31,11.91,14.13,14.13,0,0,1-7.38,1.45c-4.92-.43-7.92-4.18-8.13-10.06-.17-4.84,1.76-9,4.15-13.08,1.45-2.45,1.43-2.55-1.24-3.3-13.95-3.94-28-7.15-42.25-10.07-18.13-3.72-36-8.5-54-12.81-11.09-2.65-22-5.82-32.88-9.22-11.11-3.47-22.49-6-33.57-9.56a22.46,22.46,0,0,1-5.71-2.64c-1.24-.83-2-2-1.18-3.48s2.06-1.47,3.41-.93c10.63,4.23,21.88,6.24,32.84,9.29,8.22,2.3,16.37,4.87,24.63,7,9.34,2.44,18.79,4.46,28.14,6.86q20.77,5.36,41.78,9.65c21.85,4.5,43.42,9.89,64.42,17.51a434.42,434.42,0,0,1,46.15,20q21.93,11,43.94,21.76c2.2,1.08,4.31,2.45,6.89,2.57,1.31.07,1.8,1.48,2.87,1.94,10.77,4.6,21.59,9.05,33.28,10.78a23.6,23.6,0,0,0,5.38.05c5.6-.48,8.83-5.59,7-11.07s-5.18-10.12-8.73-14.58c-6-7.51-13.24-13.71-20.58-19.75-8.41-6.92-16.6-14.11-25.16-20.82-8.32-6.53-16.84-12.81-25.25-19.21a147.49,147.49,0,0,1-11.43-9.76q-14-13.12-28-26.34c-6-5.7-12.14-11.31-17.92-17.27a9.54,9.54,0,0,1-2.12-3,2.94,2.94,0,0,1,3-4.22,5.91,5.91,0,0,0,3.5-.82c7.94-3.9,16.23-5.77,25-3.66s16.13,6.83,22.79,12.71c2.6,2.29,5,4.77,7.56,7.14a129.49,129.49,0,0,1,16.44,18.87c5.55,7.74,12.06,14.75,17.57,22.52,3.34,4.71,5.92,9.87,8.78,14.86,4.4,7.67,9.07,15.19,13.12,23.07.4.78,1,1.61.7,2.42-.64,1.67.35,2.49,1.37,3.41,2.89,2.62,5.88,5.13,8.6,7.92,7.4,7.57,14,15.7,17.25,26,.35,1.13,1,.81,1.72.49,4.63-2.08,5.86-4.61,4.57-9.51-3-11.19-7-22.06-10.34-33.13C436.28,277.9,429,263.87,421.29,250c-5.57-10-10.38-20.41-15.69-30.56-7-13.44-13.34-27.24-20.55-40.59a186.35,186.35,0,0,0-21.21-30.62,159.32,159.32,0,0,0-63.28-46.33,88.57,88.57,0,0,0-28.13-6.35C251.89,94.45,231.36,93.65,210.79,94ZM333.21,451.66c1.87-.19,4.59-.35,7.29-.74,13.25-1.89,26.59-2.77,39.94-3.51,12.92-.71,25.86-1,38.75-2.26C442.07,443,465,441.81,488,441.8c2.9,0,2.89,0,2.65-2.88a142.18,142.18,0,0,0-4.73-24.76,164.87,164.87,0,0,0-22.54-49,59.18,59.18,0,0,0-18.86-17.62c-.9-.55-1.54-.79-2.34.24-2.89,3.74-6.89,5.27-11.49,5.49-5.72.28-11.21-1-16.61-2.63a3.43,3.43,0,0,0-4.25,1.27,160.61,160.61,0,0,1-12.22,13.73,18.85,18.85,0,0,1-8.24,4.8c-7.45,2-19.36.39-23.91-8.83-1.08-2.2-1.23-2.17-3.05-.34a120,120,0,0,0-21.06,29.29c-5,9.51-6.76,20-8.66,30.42-1.66,9-2.3,18.18-3.38,27.27C328.84,452.1,328.48,451.68,333.21,451.66Zm73.46-161.15c0-.14.13-.29.09-.36-1-1.83-2-3.68-3.11-5.48-6.1-10.11-11.15-20.88-18.86-30-3-3.59-6-7.27-8.84-11-5.39-7-10.48-14.29-16.91-20.45-6.17-5.9-12-12.11-19.42-16.64-9.78-6-19.81-6.82-30.29-2.13-2.07.93-2.1,1-.47,2.54,7.67,7.12,15.32,14.26,23.05,21.31,9,8.18,17.36,17,26.81,24.62,15.41,12.44,31.73,23.74,46.56,36.93C405.65,290.19,406,290.7,406.67,290.51ZM309.81,338c.09.81.17,2,.38,3.26.69,4,2.81,5.75,6.91,5.72,3.81,0,6.82-2,9.79-4.05a172.86,172.86,0,0,0,23-18.49c1.55-1.5,1.6-1.51-.33-2.46-8-3.94-16.14-7.82-24.16-11.83-1.55-.78-2.46-.42-3.51.72A51,51,0,0,0,313,324.3,34.84,34.84,0,0,0,309.81,338Zm73.33,26.81a13.87,13.87,0,0,0,10.49-4.3c3.63-3.74,6.92-7.77,10.41-11.62,1-1.16.19-1.38-.69-1.73-4.3-1.73-8.62-3.45-12.9-5.25a2.13,2.13,0,0,0-2.64.54,37.79,37.79,0,0,1-8.14,6.13,106.07,106.07,0,0,0-9.13,6.05c-1.21.84-1.15,1.53-.59,2.75C372.57,363.09,377.35,364.82,383.14,364.81ZM270,303.37c0,4.76,2.23,6.33,6.36,4.85a18,18,0,0,0,2.87-1.3c4.83-2.77,9.64-5.59,14.45-8.4.37-.22.9-.4.87-.87s-.69-.62-1.13-.77c-4.6-1.66-9.18-3.39-13.81-4.94s-3.67-2.13-6.34,2.39A21.78,21.78,0,0,0,270,303.37Zm92,26.22c1.42,6.32,2,12.82,4.22,19,.48,1.33,1.12.74,1.79.24a73.56,73.56,0,0,1,10.14-6.48,23.16,23.16,0,0,0,4.14-2.8c.65-.56.64-1-.16-1.36l-19-9.27C362.39,328.52,362,328.63,362,329.59Z" transform="translate(-97.39 -87.85)"/><path class="cls-1" d="M435.37,583.08q-.53-20.25-.25-40.5.35-26.48,1-52.93a55.3,55.3,0,0,1,1-10.34,3.25,3.25,0,0,1,1.89-2.58,2.53,2.53,0,0,1,2.63.34,2.28,2.28,0,0,1,1,2.43c-1.46,4.95-1.18,10.06-1.21,15.1-.22,33.32-.51,66.64.14,100,.54,27.5-.56,55-.33,82.48,0,1.25-.34,1.82-1.66,1.82-5.59,0-4.59,1-4.59-4.37C435,644,436.17,613.55,435.37,583.08Z" transform="translate(-97.39 -87.85)"/><path class="cls-1" d="M399.43,638.92q.81-22.47,1.62-44.93c.5-14.17,1.49-28.31,2.82-42.43q1.69-18,3.13-36.07c.69-8.7,1.31-17.4,2.33-26.07a23.65,23.65,0,0,1,.74-3.82,2.78,2.78,0,0,1,3.59-2.05c1.55.5,2.11,1.94,1.54,3.77a35,35,0,0,0-1.05,8.08c-1.18,16.17-2.11,32.37-3.48,48.53-1.09,13-2.31,25.9-3,38.88-.55,10.33-.92,20.67-1.27,31q-1.08,32.6-1.49,65.2c0,1.17-.33,1.62-1.56,1.7-4.52.31-4.52.36-4.48-4.26Q399,657.69,399.43,638.92Z" transform="translate(-97.39 -87.85)"/><path class="cls-1" d="M359.94,636.24c.1-14.92,1-29.83,1.5-44.74q.78-22,2.22-44c.64-9.69,1.86-19.33,2.88-29,.95-8.92,1.59-17.88,2.95-26.75a13.38,13.38,0,0,1,.5-2.36c.56-1.62,1.91-2.45,3.26-2,1.57.5,2,1.69,1.83,3.22-.31,2.58-.68,5.15-.92,7.74-1.4,15.35-3,30.68-4.11,46.05-1.21,16.54-1.74,33.13-2.47,49.71q-1,23.28-1.5,46.59c-.24,13.31-.35,26.62-.51,39.94,0,2.62,0,2.62-2.55,2.73-3.56.16-3.57.16-3.53-3.33Q359.7,658.17,359.94,636.24Z" transform="translate(-97.39 -87.85)"/></svg>