<svg id="Capa_1" data-name="Capa 1" xmlns="http://www.w3.org/2000/svg" viewBox="0 0 532.5 435.62"><defs><style>.cls-1{fill:#0c0c0c;}.cls-2{fill:#f12946;}.cls-3{fill:#fefefe;}</style></defs><path class="cls-1" d="M813,257.61c-.24,3.05-.47,6.11-.74,9.16a28.75,28.75,0,0,0,2.55,13.86A86.45,86.45,0,0,1,819.65,295c1.85,8.18.67,16-2.55,23.64-.22.52-.43,1-.66,1.56-1.07,2.44-1.07,2.43,1.56,3a8.28,8.28,0,0,1,6.32,5.32,32.9,32.9,0,0,1,1.5,18.46,118.35,118.35,0,0,1-6.07,21.22c-.45,1.16.43,1.29,1,1.66a211.26,211.26,0,0,1,18.82,14.61c17.38,15.33,33.83,31.56,47.64,50.29,11.65,15.8,23.11,31.75,35,47.36,8.57,11.24,18.46,21.39,28,31.84a18.08,18.08,0,0,1,2,2.44,3.1,3.1,0,0,1-4.95,3.74c-8.06-9-16.54-17.57-24.47-26.66-8.7-10-16.09-20.91-24-31.48-10.06-13.48-19.54-27.42-30.86-39.89-19.27-21.25-40-40.81-64.94-55.48-15.14-8.93-30.71-17.08-46.44-24.9-6.49-3.23-12.56-7.27-19.3-10A44.72,44.72,0,0,0,724.48,328c-4.66-.46-6.37,1.49-5,6,1.52,5.19,4.57,9.58,7.84,13.78,7.33,9.43,16.72,16.5,26.78,22.67,8.94,5.49,18,10.89,27.27,15.77a16.24,16.24,0,0,1,5.31,4.1c2.28,2.85,1.54,5.94-1.87,7.25s-6.87,2.33-10.3,3.51a27.87,27.87,0,0,0-6.71,3.29c-4.14,2.82-5.44,6.3-3.68,11a34.72,34.72,0,0,0,9.54,14.17c2,1.78,4.07,3.51,6.1,5.28,1.72,1.51,2.23,3.2,1.48,4.8s-2.36,2.13-4.52,1.85c-4.33-.58-8.65-1.39-13-1.38-1.48,0-3.31-.26-4.15,1.13s.39,2.86,1.16,4.07A44.79,44.79,0,0,0,778,461c3.1,1.61,6.28,3.09,9.41,4.66A18.06,18.06,0,0,1,790,467.2c1.81,1.33,2.37,3,1.69,4.71a4.07,4.07,0,0,1-4.46,2.36c-3.29-.37-6.57-.86-9.86-1.27-2.6-.32-5.21-.61-7.83-.85-.58-.06-1.44-.35-1.73.27s.53,1.05,1,1.44a81.29,81.29,0,0,0,18.67,12.42c8.77,4.43,17.86,8.12,26.79,12.2,10.64,4.85,20.61,11,30.76,16.81,7.13,4.06,14.5,7.63,21.86,11.22a2.15,2.15,0,0,0,1.43.35c2.21-.57,3.38.81,4.46,2.34a2.68,2.68,0,0,1,.09,3.32,2.76,2.76,0,0,1-3.13,1.17,25.16,25.16,0,0,1-3.5-1.33c-15.47-6.67-30-15.19-44.78-23.21a186.44,186.44,0,0,0-17.78-8.44,192.43,192.43,0,0,1-29.75-15,2,2,0,0,0-2.41-.06q-3.39,2.19-6.83,4.3a1.63,1.63,0,0,0-.74,1.76c.48,5.54,1,11.08,1.37,16.62.09,1.37.85,1.75,2,2q21.42,5.6,42.27,13c20.84,7.45,41.64,15,62,23.62a48.35,48.35,0,0,1,7.54,3.79c1.69,1.1,2.25,2.75,1.51,4.15a3.08,3.08,0,0,1-4.28,1c-9.87-5.08-20.31-8.77-30.65-12.7-15.66-6-31.37-11.78-47.3-17-.78-.25-1.51-.65-2.22.16-6.27,7.1-14.29,11.94-22.27,16.72A166,166,0,0,1,719.18,564a171.49,171.49,0,0,1-31.37,2.59,235.6,235.6,0,0,1-71.17-10.4c-11-3.42-21.22-8.85-31-15.05-3.37-2.15-6.7-4.38-10.1-6.48-2.49-1.53-4.9-2-7.76-.32-13.45,8-26.82,16.08-39.73,24.9a9,9,0,0,1-1.27.8c-1.39.61-2.74.57-3.72-.72a2.63,2.63,0,0,1,.43-3.72,20.55,20.55,0,0,1,2.94-2.32c20.21-13.46,40.7-26.4,62.76-36.73a158.34,158.34,0,0,0,17.28-9,3.53,3.53,0,0,0,1.84-2.8c1-7,.61-14.09.56-21.14a12.32,12.32,0,0,0-1.88-6c-.5-.94-1-1.85-1.53-2.8-2-3.8-2-3.81-6.08-2,0,.68.62.88,1,1.22a17.65,17.65,0,0,1,4.14,5c2.46,4.62,1.27,8.91-3.27,11.54a47.07,47.07,0,0,1-10.8,4.23c-6.61,1.9-13.24,3.68-19.73,6s-11.87,5.95-17.25,10c-13,9.82-26.88,18.27-42.24,24-1.64.62-3.23,1.35-4.86,2a7,7,0,0,1-1.61.46c-1.62.23-3.07-.07-3.66-1.82a2.84,2.84,0,0,1,1.72-3.7c2.31-1.11,4.64-2.2,7-3.16,15.84-6.42,30.14-15.42,43.44-26,5.85-4.67,12.74-7.07,19.63-9.56,6.36-2.3,13-3.48,19.41-5.74a44.54,44.54,0,0,0,5.54-2.29c1.43-.73,1.66-1.72.88-3.07a10.06,10.06,0,0,0-5.8-4.75,62,62,0,0,0-8.65-1.68c-2.34-.4-3.61-1.54-3.66-3.33s1.07-3.1,3.46-3.51c4.69-.8,9.41-1.35,14-2.51a38.88,38.88,0,0,0,8-2.58c3.15-1.55,3.73-3.54,1.91-6.54-1.58-2.6-4.05-4.21-6.65-5.61a41.14,41.14,0,0,0-9.31-3.43c-3.32-.87-4.9-2.22-4.77-4.25.18-2.8,2.38-3.54,4.61-4.2a170.65,170.65,0,0,0,16.94-5.49c7.16-2.93,8.53-6.8,4.87-13.68-2.26-4.26-5.84-7.15-9.95-9.39-2.86-1.56-5.69-3.15-8.41-4.92a11.54,11.54,0,0,0-3.74-1.7,2.85,2.85,0,0,1-2.2-2.69c-.57-3.29.7-5.55,3.36-7.49,8.69-6.33,17.61-12.35,26.16-18.89q14-10.67,26.88-22.52a51,51,0,0,0,8.44-9.52c1.09-1.68,2.35-3.53,1.11-5.55s-3.54-1.93-5.6-1.66c-6.43.84-12.5,3-18.55,5.24a288.37,288.37,0,0,0-79,44.69,737.47,737.47,0,0,0-55.6,49.22c-23.11,22.33-46.19,44.71-69.54,66.79-.86.82-1.63,1.74-2.51,2.53a2.46,2.46,0,0,1-3.56.13,2.43,2.43,0,0,1-.23-3.41,16.25,16.25,0,0,1,1.93-2.29c26.78-26.19,53.4-52.54,80.59-78.31,12.89-12.22,26.17-24,39.95-35.23,4.61-3.75,9.38-7.3,14.14-10.86,1.19-.88,1.29-1.47.6-2.84-5.23-10.28-9.42-20.89-8.73-32.74a28.21,28.21,0,0,1,2.88-10.81,13.64,13.64,0,0,1,8.31-7.39c1.39-.44,1.66-.94,1.16-2.39-2.84-8.22-5-16.65-7-25.08-1.66-6.69-.33-13.15,2.52-19.33,1-2.1,1.9-4.24,3.06-6.23,2.77-4.75,3.15-9.71,2-15a90.54,90.54,0,0,1-2-16.16c-.35-12.27,3.88-22.89,11.61-32.25a77.35,77.35,0,0,1,6.59-7.19A43.78,43.78,0,0,0,589,181.45c2.68-6.64,5.85-13,11.17-18,7.7-7.26,16.63-12,27.38-12.49a27.59,27.59,0,0,0,15.29-5.35A76.88,76.88,0,0,1,670.07,133c9.42-2.18,18.89-2.94,28.4-.39,4.88,1.3,9.38,3.48,12.75,7.19,4.07,4.49,9.17,5.67,14.81,6a50.63,50.63,0,0,1,19.14,4.9A28,28,0,0,1,757.41,162a56.21,56.21,0,0,0,18.92,19.4c11,7.06,17.13,17.36,18.64,30.25a35.16,35.16,0,0,0,8.63,19.94,39.14,39.14,0,0,1,8.65,15c-.94,0-.36,2-1.69,1.41a2.67,2.67,0,0,0-3,.75c-.65.64-1,.34-1.59.14-1.08-5-3.87-9.08-7.14-12.81a41.58,41.58,0,0,1-10.34-23.44C787.27,201.78,782.29,193,773,187c-8.73-5.63-16-12.58-21.13-21.65a20.5,20.5,0,0,0-7.67-7.82,38.93,38.93,0,0,0-16.71-5.14c-8-.56-15.47-2.15-21.28-8.57-4-4.41-9.71-5.8-15.48-6.31a62.52,62.52,0,0,0-29.15,4.77c-6.49,2.62-12.31,6.38-18.06,10.27a25.5,25.5,0,0,1-13.54,4.4c-13.38.62-23.76,6.59-31,17.9a55.46,55.46,0,0,0-4.39,9.12,47.58,47.58,0,0,1-11.5,17.15c-1.81,1.71-3.49,3.58-5.13,5.46-6.29,7.18-10.63,15.25-11.53,24.93-.5,5.48.32,10.85,1,16.23a2.45,2.45,0,0,1-1.11,2.52c-.73.46-.63,1.13.17,1.24.58.08,1.22.69,1.85.09a17.56,17.56,0,0,0,.17,2.42,22.56,22.56,0,0,1-2.5,15.33c-1.29,2.5-2.54,5-3.7,7.59-2.22,4.9-3.31,10-1.9,15.34,2.33,8.75,4.27,17.61,7.33,26.16.51,1.41,1,3,2.19,3.87,2,1.47,3.43,3.44,5.14,5.18,2.93,3,5.86,6,8.83,8.93.45.45.93,1.34,1.63.94s.23-1.26.18-1.91c-.06-1-.29-2-.35-3a31.3,31.3,0,0,1,.27-8.59,112.84,112.84,0,0,0,2.8-24.91,3.47,3.47,0,0,0-.12-1.66c-1.23-2-.66-4-.2-6,2-8.93,4.16-17.81,9.81-25.33a13.19,13.19,0,0,1,5.26,3c-.51.7-1.06,1.39-1.55,2.11a41.52,41.52,0,0,0-7.18,23.18c0,1.32-.11,2.63-.07,3.94.21,5.89.17,11.82-1.27,17.53a70.52,70.52,0,0,0-1.32,26.44c-.07,0,.08,0,.17,0a6.48,6.48,0,0,0,.89-.67c5.84-5.41,12.68-9.31,19.67-13,6.52-3.41,13.56-5.42,20.61-7.41,10.41-2.94,20.85-5.69,31.68-6.68a183.33,183.33,0,0,1,27.92-.42c8.3.5,16.59,1.36,24.54,4.08,3.42,1.17,6.75,2.84,10.21,3.62a71.52,71.52,0,0,1,17.59,6.3c9.85,5.19,19.81,10.14,29.65,15.33,2,1.07,3.73.44,5.57-.07.64-.17.64-.65.46-1.19-2.15-6.33-1.24-12.74-.36-19.12.93-6.72,1.68-13.41-.37-20.06a3.09,3.09,0,0,0,.94-2.13,16.87,16.87,0,0,1,.16-3.25,14,14,0,0,0-2.1-5.35c-.61-.51-1.45-.2-2-.72a3.05,3.05,0,0,0-.15-2c-.78-3.15-1.59-6.29-2.4-9.44.16-.26.26-.62.5-.77a17.57,17.57,0,0,0,4.51-3.64c.14-.18.66-.06,1-.09a5.51,5.51,0,0,0,.14,1.3,125.2,125.2,0,0,1,3.77,14.26c1.22,5.36,2.8,10.63,3.69,16.06,1,6-.24,11.83-.87,17.72-.5,4.71-1.25,9.42-.34,14.19.3,1.57.83,2.25,2.48,1.68a8.4,8.4,0,0,1,2.56-.52c3.59,0,5.75-2.14,7.35-5a73.13,73.13,0,0,1,6.12-9,40,40,0,0,0,5.27-9c2.36-5.64,4-11.39,3.16-17.66-.85-5.95-3-11.45-5.21-17-1.81-4.56-3.2-9.21-2.93-14.2.14-2.62.29-5.23.43-7.84C808.4,259.42,810.53,258.1,813,257.61ZM679.34,510.05c2.44-.1,5.87-.27,9.31-.4A123.06,123.06,0,0,0,723.54,503c15.07-5.14,28.62-13.37,42.3-21.3,1.07-.62,1.12-1.12.18-1.94a22.26,22.26,0,0,1-5.32-6c-1.89-3.51-.44-6.68,3.41-7.62a18.38,18.38,0,0,1,6.89-.34c.38.05,1,.25,1.08-.36.09-.42-.37-.59-.67-.78a53.52,53.52,0,0,1-7-5.36c-4.5-3.95-8.58-8.26-10.87-13.91s.43-10.27,6.28-11.34a21.51,21.51,0,0,1,6.15-.38c.54.05,1.28.36,1.57-.17.39-.71-.47-1-.85-1.46A44.57,44.57,0,0,1,758,418.14c-3-7.63-.86-14.35,5.78-19.14,3.82-2.75,8.17-4.26,12.57-5.73.53-.18,1.44-.09,1.46-.89,0-.59-.76-.73-1.23-1s-.68-.33-1-.52c-11.56-6.72-23.41-13-34.22-20.93-11.44-8.41-21.33-18.14-27.2-31.36a1.65,1.65,0,0,0-1.43-1,135.73,135.73,0,0,0-49.22.83c-1,.2-1.52.58-1.59,1.67a14.54,14.54,0,0,1-3.11,7.53,63.14,63.14,0,0,1-8.5,9.47,397.21,397.21,0,0,1-42.21,33.66Q603,394.34,597.88,398c-.46.33-1.62.86-.64,1.48,2.08,1.31,3.27,3.72,5.75,4.53a19.31,19.31,0,0,1,3,1.47c6.48,3.4,11.81,7.9,14.6,14.95,3.16,8,.74,14.64-6.92,18.5a79,79,0,0,1-10.81,4.25c-.54.18-1.46.05-1.47.85,0,.58.8.7,1.3.93a25.7,25.7,0,0,1,9.85,7.3c5.26,6.72,3.38,13.33-2.51,16.63-1,.57-1.07,1.14-.51,2.09,1.29,2.14,2.59,4.28,3.71,6.51,8.11,16.14,22.2,24.63,38.65,29.85C660.47,510.05,669.47,509.67,679.34,510.05Zm8.51,50a158.13,158.13,0,0,0,34.92-3.34c10.94-2.32,21.33-6.28,31.55-10.7a149.71,149.71,0,0,0,34.17-20.82c1.7-1.36,1.63-1.66-.41-2.29-7.47-2.29-14.94-4.57-22.43-6.79-4.94-1.47-6.17-3.11-6.33-8.33-.12-4.18-.43-8.36-.61-12.54-.06-1.23-.45-1.62-1.59-.9-.85.53-1.73,1-2.6,1.5-14.5,8.38-29.76,14.83-46.29,17.94A155.9,155.9,0,0,1,658,515c-16.71-2.29-30.32-10.69-41.9-22.67-.35-.37-.56-1.19-1.22-.87s-.28,1-.26,1.55a103,103,0,0,1-.47,12.54c-.28,3.14-1.53,5.43-4.42,6.85-1.67.83-3.18,2-4.84,2.85-8.45,4.34-16.93,8.63-25.39,13-.57.29-1.52.34-1.54,1.15s.83.84,1.34,1.16c3.44,2.16,6.88,4.32,10.35,6.43a119.7,119.7,0,0,0,27.11,12.71A235.8,235.8,0,0,0,687.85,560.06ZM586,355.59a6.83,6.83,0,0,0,2.73-1.23c16.4-9.07,33.36-16.87,51.33-22.28,5.24-1.57,10.61-3.19,16.18-1.26a1.15,1.15,0,0,0,1.21-.29,8.5,8.5,0,0,1,4.32-1.65,158.88,158.88,0,0,1,20.89-2.05c8.88-.49,17.75-.5,26.54,1.14,3.39.64,3.29.62,5.08-2.12.92-1.41.66-2-.85-2.25-.37-.08-.72-.22-1.09-.3a137.85,137.85,0,0,0-22.46-2.95,157.33,157.33,0,0,0-33.45,1.7c-9.9,1.58-19.44,4.63-29.07,7.32-16.15,4.5-29,14.34-40.95,25.53A3.64,3.64,0,0,0,586,355.59Zm234.44-16.07a32.32,32.32,0,0,0-1.29-8.12,3.28,3.28,0,0,0-3-2.71c-1.89-.11-4-.53-5.41,1.21a44,44,0,0,0-5.35,7.68c-1.9,3.73-5,6.39-8.28,8.77a3.56,3.56,0,0,1-4,.48,2.94,2.94,0,0,0-2.36-.19c-1.44.41-2.9.76-4.34,1.17-.44.13-1.15.07-1.18.68s.65.69,1.06.91c9.1,4.86,18.25,9.62,26.82,15.38,1.21.81,1.54.34,1.85-.84.82-3.08,1.75-6.13,2.64-9.19C819,350,820.43,345.15,820.47,339.52Zm-265.42,2.62c.77,9,4,17.84,8.19,26.43.47,1,1,1,1.93.41q6.29-4.1,12.64-8.09c1-.62,1.07-1,0-1.68a17.62,17.62,0,0,1-5.45-5.84c-2.61-4.26-3.6-9-4.21-13.88a55.48,55.48,0,0,0-2.93-12.18c-.55-1.48-1.33-1.74-2.7-1.24a8.84,8.84,0,0,0-5.43,5.35A31.41,31.41,0,0,0,555.05,342.14Zm18.65-7.52-.45.23c.16,1.47.28,2.94.48,4.4.64,4.73,1.55,9.36,4.6,13.26.74.95,1.27,1.12,2.21.2,1.68-1.66,3.48-3.22,5.28-4.76.88-.75,1-1.24-.06-2a58.37,58.37,0,0,1-8.21-7.35C576.25,337.31,575,336,573.7,334.62Z" transform="translate(-420.24 -130.97)"/><path class="cls-2" d="M813,257.61c-2.49.49-4.62,1.81-6.84,2.94-2.85.44-5,2.42-7.66,3.47a28.35,28.35,0,0,0-6.78,3.79,88.36,88.36,0,0,1-10,6.25,2.7,2.7,0,0,0-1.2,1.48c-.34,0-.86-.09-1,.09a17.57,17.57,0,0,1-4.51,3.64c-.24.15-.34.51-.5.77a4.09,4.09,0,0,0-.6-.15c-.89,1.9-3,2.36-4.5,3.37-2.61,1.78-4.54,4.26-6.93,6.22-2.12,1.73-4,4-6.06,6.07-.86.87-2.36,1.1-2.64,2.54-.08.13-.27.34-.24.38.2.27.39.15.54-.08,3.78.1,7-2,10.57-2.75a53.64,53.64,0,0,0,6.66-2c1.93-.68,4.24-.32,5.75-2.13.57.52,1.41.21,2,.72a14,14,0,0,1,2.1,5.35,16.87,16.87,0,0,0-.16,3.25,3.09,3.09,0,0,1-.94,2.13,9.38,9.38,0,0,0-3.44,2c-1.95,1.73-4.69,2.14-7.14,2.82-4.48,1.24-9.1,2-13.66,3s-9,1.94-13.5,3.07a22.33,22.33,0,0,1-6.68.74c-2.09-.11-4.06-.78-4.91-3.06-.61-1.62.39-3.06.84-4.38a30.67,30.67,0,0,1,4.35-8.9l.17.48.23-.2-.43-.25a5.54,5.54,0,0,0-.05-.56c-.13-.83-.92-1.87.71-2.16,0,0,.94-.45.32-.93s-.19-1.13,0-1.67c.29-1.16.71-2.28,1.08-3.4a67.82,67.82,0,0,1,2.7-7.63c.28-.6,1.13-1.08.86-1.88-.66-1.9.88-3,1.58-4.36.92-1.78,3.92-1.81,3.83-4.5,0-.28.3-.34.58-.26s.8.35.67.76c-.38,1.24.38,2.4.09,3.66-1.12,4.84-2.3,9.67-3.16,14.57-.46,2.62-1.07,5.19-1.65,7.78-.09.44-.23.91.25,1.14s.57-.29.84-.51a41.51,41.51,0,0,0,4.45-4.55,155.18,155.18,0,0,1,10.77-11.58c2.2-2.06,4.35-4.19,6.48-6.32,1.86-1.85,4.1-3.36,5.56-5.61a12.56,12.56,0,0,0,5.65-4.51,1.9,1.9,0,0,0,1.35-.46c5.17-4.14,11-7.3,16.7-10.56.44-.25,1.23-1.33,1.48.32.1.64.54.34.86-.13.71-1,2.22-.37,3-1.32a.49.49,0,0,1,.3.16c.91,1.59,1.79.74,2.83,0-.62-.27-1.47.29-1.58-.84,1.05-.18,2.15-.34,2.74-1.44-.56-.38-1.1,0-1.64,0-.38,0-.89.54-1.12,0s.5-.7.84-.94c.88-.62,2.2-.51,2.72-1.7.55.2.94.5,1.59-.14a2.67,2.67,0,0,1,3-.75c1.33.56.75-1.38,1.69-1.41a29.82,29.82,0,0,1,6.18-2.76c2.47-.8,4.77-2,7.3-2.72,2.3-.65,4.58-1.67,6.86-2.55,1.79-.7,3.79-.29,4.35.9a12.07,12.07,0,0,1,.77,3.4c.23,1.49,1,3.24-.49,4.58a15,15,0,0,1-4.64,2.83,3.11,3.11,0,0,0-1.43.79c-1.37,1.73-3.44,1.64-5.27,2.21-4.1,1.28-8.18,2.62-12.26,4A2.38,2.38,0,0,0,813,257.61Zm-66.59,26.63-.11-.12s-.11.08-.11.12.07.08.1.13Z" transform="translate(-420.24 -130.97)"/><path class="cls-2" d="M612.5,260c2.65,1.93,5.64,3.33,8.1,5.54,2.68,2.42,5.53,4.63,8.08,7.23,2.08,2.12,4.25,4.14,6.15,6.42,3.22,3.86,6.52,7.67,8.66,12.29.26.55.8,1,1.28.84s.55-1,.53-1.64c-.15-4.1,0-8.19.11-12.28a6.66,6.66,0,0,1,2.5-4.81c.34-.33.6-.71.56-1-.25-1.78.93-1.46,2-1.41l0,0c.77-1,1.18-2.4,3-2.18.44.05,1.09-1.4,1.24-2.35.08-.55,0-1.21.8-1.25a1.29,1.29,0,0,1,1.22,1,8.26,8.26,0,0,1,.68,2.7c0,3.47.89,6.82.65,10.35-.38,5.47,0,11,.06,16.48,0,3.88-.12,7.76-.33,11.62-.09,1.68-.12,3.75-2.7,3.91a.93.93,0,0,0-.92,1h0c-.49-.25-1.12-.32-1.38.12-1.26,2.13-3.13,1.47-4.91,1.15-3.71-.67-6.92-2.63-10.23-4.24-8.06-3.9-15.91-8.22-24.11-11.86a5,5,0,0,1-2.39-2.86c2.38-.59,4.21-2.2,6.26-3.38.68-.39.69-1.24.54-2-.31-1.66,0-2.06,1.66-1.63,1.94.5,3.83,1.21,5.74,1.82.39.12.87.4,1.15-.14s-.19-.63-.45-.91c-1.31-1.46-3-2.65-3.46-4.74-3-1.34-4.61-4.35-7.22-6.27-1.74-1.28-3.89-2.53-5.26-4.62a7.2,7.2,0,0,0-3.63-2.24c-1.19-.35-1.6-2.12-3.18-1.7a13.19,13.19,0,0,0-5.26-3c-2.88-3-6.88-4.31-10.45-6.11-5-2.51-10.36-4.25-15.54-6.4-1.29-.53-2-2.08-3.59-1.88-.63.6-1.27,0-1.85-.09-.8-.11-.9-.78-.17-1.24a2.45,2.45,0,0,0,1.11-2.52c1.16.11,2-1.61,3.36-.52-.1.49-.86,0-.83.45.05.66.73.55,1.18.62.63.1,1.41.07,1.37-.77s.24-.72.78-.72a30.13,30.13,0,0,1,8.23,1.51c4.36,1.22,8.83,2.09,13.06,3.77,3.19,1.26,6.39,2.52,9.57,3.81a5.2,5.2,0,0,0,2.44.78C608.38,258.21,610.66,258.74,612.5,260Zm-20.45-7.18c-.86-.37-1.55.76-1.53,1,.13,1.32,1.46-.37,2,.63.14.25,1-.52,1-1S592.77,252.8,592.05,252.83Zm-17.68-5.08c-.06-.38-.18-.72-.65-.7s-.44.3-.44.63,0,.66.35.69A.64.64,0,0,0,574.37,247.75Zm-4.84-.55c-.16.11-.42.09-.3.35s.2.39.3.38a.34.34,0,0,0,.35-.46C569.84,247.35,569.64,247.29,569.53,247.2Zm24.85,6.27-.12-.22s-.11.09-.1.12a1.15,1.15,0,0,0,.1.23Z" transform="translate(-420.24 -130.97)"/><path class="cls-3" d="M568.44,251.58c1.6-.2,2.3,1.35,3.59,1.88,5.18,2.15,10.56,3.89,15.54,6.4,3.57,1.8,7.57,3.07,10.45,6.11-5.65,7.52-7.79,16.4-9.81,25.33-.46,2-1,4,.2,6a3.47,3.47,0,0,1,.12,1.66,112.84,112.84,0,0,1-2.8,24.91,31.3,31.3,0,0,0-.27,8.59c.06,1,.29,2,.35,3,.05.65.45,1.56-.18,1.91s-1.18-.49-1.63-.94c-3-3-5.9-5.95-8.83-8.93-1.71-1.74-3.14-3.71-5.14-5.18-1.2-.89-1.68-2.46-2.19-3.87-3.06-8.55-5-17.41-7.33-26.16-1.41-5.3-.32-10.44,1.9-15.34,1.16-2.57,2.41-5.09,3.7-7.59a22.56,22.56,0,0,0,2.5-15.33A17.56,17.56,0,0,1,568.44,251.58Z" transform="translate(-420.24 -130.97)"/><path class="cls-3" d="M777.1,291.48c-1.51,1.81-3.82,1.45-5.75,2.13a53.64,53.64,0,0,1-6.66,2c-3.58.74-6.79,2.85-10.57,2.75l-.3-.3c.28-1.44,1.78-1.67,2.64-2.54,2-2,3.94-4.34,6.06-6.07,2.39-2,4.32-4.44,6.93-6.22,1.48-1,3.61-1.47,4.5-3.37a4.09,4.09,0,0,1,.6.15c.81,3.15,1.62,6.29,2.4,9.44A3.05,3.05,0,0,1,777.1,291.48Z" transform="translate(-420.24 -130.97)"/><path class="cls-1" d="M612.5,260c-1.84-1.27-4.12-1.8-5.81-3.35,8.07-6.72,17.34-10.93,27.47-13.61,13.58-3.59,27.42-3.85,41.31-3.75,5,0,10,.13,15,.34,12.43.51,24.7-1,37-2.59,6-.76,12-1.63,18.11-1.43,12.39.41,21.37,6.18,26.84,17.28a86.6,86.6,0,0,1,5.06,12.85,12.56,12.56,0,0,1-5.65,4.51c-1.44-3.87-2.84-7.74-4.32-11.59-5-12.91-14.09-17.23-26.84-16.17-8.22.68-16.41,1.68-24.6,2.67a176.29,176.29,0,0,1-24.53,1.13c-12-.25-24-.69-36,.06a101.57,101.57,0,0,0-29.27,6A56,56,0,0,0,612.5,260Z" transform="translate(-420.24 -130.97)"/><path class="cls-3" d="M736,298.27l.43.25-.23.2-.17-.48Z" transform="translate(-420.24 -130.97)"/><path class="cls-3" d="M746.43,284.24l-.12.13c0-.05-.1-.09-.1-.13s.07-.08.11-.12Z" transform="translate(-420.24 -130.97)"/><path class="cls-3" d="M754.12,298.39c-.15.23-.34.35-.54.08,0,0,.16-.25.24-.38Z" transform="translate(-420.24 -130.97)"/><path class="cls-1" d="M686.72,378.57c13.73-.24,28.32,2.16,42.79,5.51,4.57,1.05,9.14,2.13,13.7,3.21,2.84.67,4.09,2,3.68,3.82s-2.1,2.59-5,1.95c-9.21-2.05-18.41-4.19-27.7-5.88a178.56,178.56,0,0,0-44.65-2.06A170.57,170.57,0,0,0,630.33,393a5,5,0,0,1-2.38.4c-1.36-.23-2.37-.87-2.49-2.37a2.6,2.6,0,0,1,2-3c5.71-1.61,11.36-3.44,17.13-4.83A172.12,172.12,0,0,1,686.72,378.57Z" transform="translate(-420.24 -130.97)"/><path class="cls-1" d="M685.43,466c-15.53-.31-30.5-1-45.25-4.11-5.38-1.13-10.76-2.32-15.79-4.66a9.33,9.33,0,0,1-1.94-1.12,2.61,2.61,0,0,1-.79-3.51,2.42,2.42,0,0,1,3.42-1c8.54,3.9,17.71,5.26,26.88,6.39a290.29,290.29,0,0,0,45.48,1.68c9.75-.34,19.49-.64,29.23-1,1.81-.07,3.62-.23,5.42-.4,2.42-.23,3.91.66,4.08,2.5s-1.19,3.15-3.5,3.37c-2.48.24-5,.47-7.47.56C711.77,465.14,698.34,465.55,685.43,466Z" transform="translate(-420.24 -130.97)"/><path class="cls-1" d="M676.54,429.59a117,117,0,0,1-43.26-7.19c-2.88-1.07-3.81-2.13-3.16-3.93.56-1.57,2.24-2,4.89-1.13a117,117,0,0,0,23.33,5.48,207.26,207.26,0,0,0,30.52.59c15.73-.61,30.92-4.32,46.23-7.39,1.47-.3,2.94-.59,4.43-.76,2.49-.28,3.94.57,4.25,2.35s-.84,3-3.32,3.51c-6.67,1.39-13.37,2.66-20,4.18C707,428.4,693.31,429.65,676.54,429.59Z" transform="translate(-420.24 -130.97)"/><path class="cls-2" d="M655.68,264.45c-.14.22-.19.43-.3.47a.35.35,0,0,1-.49-.32,1.18,1.18,0,0,1,.16-.44Z" transform="translate(-420.24 -130.97)"/><polygon class="cls-2" points="233.9 181.55 233.96 181.59 233.91 181.54 233.9 181.55"/><path class="cls-3" d="M592.05,252.83c.72,0,1.39.08,1.46.65s-.82,1.26-1,1c-.57-1-1.9.69-2-.63C590.5,253.59,591.19,252.46,592.05,252.83Z" transform="translate(-420.24 -130.97)"/><path class="cls-3" d="M574.37,247.75a.64.64,0,0,1-.74.62c-.36,0-.34-.39-.35-.69s.05-.62.44-.63S574.31,247.37,574.37,247.75Z" transform="translate(-420.24 -130.97)"/><path class="cls-3" d="M569.53,247.2c.11.09.31.15.35.27a.34.34,0,0,1-.35.46c-.1,0-.22-.23-.3-.38S569.37,247.31,569.53,247.2Z" transform="translate(-420.24 -130.97)"/><path class="cls-3" d="M594.38,253.47l-.12.13a1.15,1.15,0,0,1-.1-.23s.06-.08.1-.12Z" transform="translate(-420.24 -130.97)"/><path class="cls-3" d="M650.4,271.24l0,0Z" transform="translate(-420.24 -130.97)"/></svg>