<svg id="Capa_1" data-name="Capa 1" xmlns="http://www.w3.org/2000/svg" viewBox="0 0 436.3 617.4"><defs><style>.cls-1{fill:#0d0d0d;}.cls-2{fill:#f22a46;}.cls-3{fill:#fefefe;}</style></defs><path class="cls-1" d="M792.58,464.57a12.94,12.94,0,0,1-7.74-3.72,4.28,4.28,0,0,0-2.28-1.17c-6.09-1.16-12.24-2-18.17-4-1.12-.37-1.42.26-1.52,1.2-.6,5.37-1.24,10.72-1.81,16.09Q760,483.46,759,493.93c-1.3,13.53-3.21,27-5,40.45a8.55,8.55,0,0,0,2.79,8c10.09,9.57,19.25,20,28.56,30.37A433.41,433.41,0,0,1,826,625.49c12.25,18.73,23.66,38.06,31.58,59.18a20.21,20.21,0,0,1,.75,2.1,3.08,3.08,0,0,1-1.63,3.76c-1.54.86-2.76.18-3.82-.9A4.86,4.86,0,0,1,852,688c-6.65-17.13-15.7-33-25-48.79-5.74-9.71-12.56-18.6-19-27.76-9.2-13-19.53-25-29.91-37.08-8.59-10-17.34-19.78-26.5-29.23a3,3,0,0,0-3.48-.87c-11.28,2.87-22.3,7-34,7.79-5.45.38-10.89.87-16.35,1-23.17.56-45-4.81-65.72-15.09-15.54-7.72-30.42-16.52-44-27.35-1.12-.9-1.9-.44-2.79.23a100.72,100.72,0,0,0-9.65,8.46c-5.9,5.69-12.4,10.7-18.29,16.41-7.81,7.58-14.79,15.89-22,24a460.18,460.18,0,0,0-40.23,53.06c-8.28,12.52-16.37,25.21-22,39.23-1,2.47-1.87,5-2.79,7.49-.09.24-.15.48-.24.71-.73,1.7-2,2.42-3.51,2a2.72,2.72,0,0,1-1.69-3.63,87.35,87.35,0,0,1,5.24-14.12c8.67-18.06,19.27-35,30.81-51.33,13.34-18.91,28.33-36.44,43.8-53.59,7-7.8,15-14.64,22.94-21.5,5-4.34,9.67-9.12,15.13-12.94a3.39,3.39,0,0,0,1.17-1.64c5.3-14.52,12-28.49,16.78-43.2,2.29-7,4.27-14.14,6.17-21.27.34-1.3.09-1.9-1.41-1.6-14,2.75-31.77-6.62-37.21-23a133.12,133.12,0,0,1-6.5-28c-.85-8-4.41-13.8-12-17.26a79.64,79.64,0,0,1-29-22.28c-4.45-5.44-8.05-11.35-9.05-18.5a70.67,70.67,0,0,1,0-15c.63-8.29,2.17-16.47,2.8-24.77.68-8.78-1.22-17-4.42-25a135.78,135.78,0,0,1-6.35-20c-2.6-11.3.57-20.8,8.11-29.19,2.75-3.05,6-5.56,9-8.36,7.88-7.34,14.26-15.69,17.35-26.22,1.79-6.11,2.42-12.42,3-18.71,1.69-17.22,8.12-32.34,20.13-44.81A49,49,0,0,1,593,100.76c4.65-.42,9.29-.64,13.94-.72,9.71-.16,18.46-3.33,26.76-8.15,6.92-4,13.64-8.42,20.9-11.81,14.34-6.68,29.22-8.51,44.61-4.35,6.61,1.79,12.34,5.44,18,9.25a53.79,53.79,0,0,0,13.91,7c7.23,2.3,14.35,1.33,21.42-.73,7.74-2.25,15.36-5,23.3-6.48s15.74-2.62,23.62-.54a44.62,44.62,0,0,1,23.44,15.35c2.91,3.55,5.76,7.15,8.48,10.84a29.91,29.91,0,0,0,12.76,10.23,93,93,0,0,1,9.13,4.62c8.64,4.77,12.16,12.37,11.61,21.86A43.12,43.12,0,0,1,856.72,170a30.82,30.82,0,0,1-7.56,7.38,1.93,1.93,0,0,0-.86,2.75,137.46,137.46,0,0,1,9.23,41.8c.47,7.31.3,14.65,1.41,21.91a50.86,50.86,0,0,0,4.87,15,24.07,24.07,0,0,1,2.68,7.06v0l.46.5c.08,2.74.06,5.47-1.21,8-.32.63-.62,1.19-.2,1.86a78.3,78.3,0,0,1-13.33,1.21c-12,.3-24,.41-35.88,1.43-11.44,1-22.88,1.88-34.34,2.33a2.32,2.32,0,0,0-2.58,2c-3.6,12.39-7.3,24.75-11.48,37-7.51,21.93-17.55,42.52-32,60.78a1.52,1.52,0,0,0,0,2.14c1.12,1.56,2.15,3.19,3.32,4.71,10.65,13.82,20.36,28.31,30.68,42.37,5.94,8.1,11.16,16.72,17.7,24.39,2,2.31,4.2,3.82,7.3,3.83C794.37,460.53,794.19,462.82,792.58,464.57ZM654.28,295.68a80.2,80.2,0,0,1,5.42-30.79c2.57-6.61,6-12.58,12.15-16.48,4.77-3,9.86-4.21,15.47-2.76a24.22,24.22,0,0,1,11.49,6.56c1,1,1.58,1,2.13-.35.62-1.49,1.37-2.93,2-4.41,4.82-11.38,12.13-21,20.65-29.83,7.5-7.8,16.85-12.12,26.94-15.17,16.7-5,33.8-8.52,50.68-12.83,10.83-2.77,21.6-5.74,31.78-10.45,5.24-2.44,10.39-5.15,14.69-9.06,6.9-6.29,9.78-14.56,10.48-23.58.53-6.88-2.17-12.31-8.5-15.69-3-1.61-6-3.32-9.11-4.67a34.24,34.24,0,0,1-14.24-11.64,137.92,137.92,0,0,0-10.08-12.67c-6.49-7-14.28-11.48-24-12.22-5.63-.43-11.13.68-16.6,1.8-7.68,1.57-15,4.37-22.56,6.38-7.22,1.92-14.48,2.91-21.87.92a58.43,58.43,0,0,1-17.55-8.39c-4.17-2.82-8.33-5.66-13.07-7.45-11.12-4.22-22.36-3.73-33.67-.82-7.5,1.93-14,5.9-20.65,9.71-4.95,2.85-9.84,5.8-14.91,8.43-8.93,4.63-18.52,6.09-28.46,6.18-7.46.07-14.87.63-21.91,3.56-11.44,4.76-19.13,13.41-25.26,23.82-6,10.19-8,21.45-9,32.94-1.29,15.45-6.9,28.81-17.82,39.92-3.54,3.59-7.43,6.77-11.06,10.25C510,224.4,507.19,233.22,510,244a217,217,0,0,0,7.06,20.58,55.74,55.74,0,0,1,3.44,26.87c-1,8.25-1.92,16.51-2.91,24.76-1.24,10.31,1.35,19.35,8.29,27.23A76.94,76.94,0,0,0,551.63,363c9.4,4.3,14.89,11.25,16,21.57a131.94,131.94,0,0,0,4.59,22.78c2.3,7.84,5.53,15,12.8,19.64s14.77,6.62,23.16,3.73A5.46,5.46,0,0,0,611,428.9c4.54-6.15,10-11.52,14.67-17.58q18.47-24.21,37.06-48.3c4-5.1,7.44-10.55,10.93-16,.52-.81,1.16-1.62-.13-2.5-4.82-3.33-8.06-8-10.92-13C656.2,320.42,654.34,308.25,654.28,295.68ZM776.54,452.79c.36.06.84.25,1-.17.23-.62-.34-1-.65-1.45q-9.79-13.94-19.6-27.87-13.21-18.81-26.43-37.63c-.87-1.23-1.56-2.79-3.13-3.28a12.66,12.66,0,0,1-4.59-2.73c-7.26-6.21-13.88-13.15-21.92-18.44-3.37-2.21-6.49-4.78-9.74-7.18s-6.13-4.86-9.44-7c-.7-.44-1.45-.95-1.9.3-1.81,5-5.19,9-8.06,13.35-7,10.57-15.3,20.17-23.13,30.11-6.15,7.8-11.74,16-18.16,23.62-5.37,6.35-11.14,12.34-16.34,18.84a5.54,5.54,0,0,0-1.3,2.21c-2.24,9.93-4.77,19.78-7.95,29.45-4.24,12.93-9.85,25.33-14.66,38-.61,1.62-.52,2.56,1,3.56,4.61,3.15,9,6.67,13.74,9.58,13.07,8,26.45,15.48,40.81,21,8,3.08,16,6,24.53,7.46a164.46,164.46,0,0,0,34.7,1.67,109.46,109.46,0,0,0,21.93-2.87c5.71-1.46,11.38-3.09,17.13-4.35,2-.44,2.85-1.33,3.1-3.2.88-6.63,1.86-13.26,2.7-19.91,1.17-9.35,2.23-18.72,3.12-28.11C754,480,755,472.08,756,464.2c.5-3.93.67-7.92,1.63-11.78.66-2.71,2.45-3.71,5.19-3.15a24.49,24.49,0,0,1,2.51.68A97.88,97.88,0,0,0,776.54,452.79Zm6.29-178c9.82-.85,19.67-1.26,29.49-2.21,13.78-1.33,27.62-1.57,41.46-1.84,2,0,4.08-.28,6.13-.41,1.18-.07,1.47-.59,1.06-1.7a68.8,68.8,0,0,0-3-7,55.85,55.85,0,0,1-5.71-18.95c-.77-6.74-.62-13.51-.95-20.26a142.63,142.63,0,0,0-7.81-38.91c-.52-1.51-1.12-1.78-2.52-.93a78.43,78.43,0,0,1-13.17,6.05c-15.11,5.6-30.84,9-46.41,12.89-10.28,2.6-20.65,4.85-30.74,8.16-7.65,2.52-14.85,5.76-20.85,11.44-10.75,10.19-18.36,22.39-24.06,35.92-.68,1.61.32,1.61,1.35,1.78,13.65,2.24,27.12,5.43,40.66,8.23,9.72,2,19.51,3.54,29.27,5.34a4,4,0,0,1,2.25,1.19A3.78,3.78,0,0,0,782.83,274.77Zm-122.1,20.44a89,89,0,0,0,1.58,16.27c1.8,9.53,5.6,18.11,12.29,25.25,3.27,3.49,5.55,3.84,9.76,1.56,3.16-1.72,6.28-3.5,8.74-6.24a3.13,3.13,0,0,1,4.21-.63,3.21,3.21,0,0,1,.62,4.35,11.66,11.66,0,0,1-2.81,3.21,42.9,42.9,0,0,1-5.78,4.06c-1.28.75-1.19,1.3,0,2.11,2.94,2.08,5.8,4.26,8.72,6.37,8,5.82,16.4,11.21,23.5,18.24,1.94,1.92,4,3.69,6.13,5.44,3.52,2.92,3.46,2.83,6.1-.8a174.64,174.64,0,0,0,16.08-26.34c10.6-21.75,16.94-45,24.18-68,.3-.95,0-1.33-1-1.52-1.83-.35-3.61-.94-5.45-1.21-8.53-1.29-17-3.07-25.38-5-11.31-2.57-22.6-5.26-34-7.56-.53-.1-1.16-.48-1.59,0s0,1.16.2,1.71a81.61,81.61,0,0,1,3.91,14.73c.26,1.32.06,2.54-1.36,3.1a2.91,2.91,0,0,1-3.63-1.05,7,7,0,0,1-1.14-2.93,74.92,74.92,0,0,0-6.56-18.74,18.1,18.1,0,0,0-7.1-7.7c-5.36-3.21-10.77-3.59-16.06.19a20.89,20.89,0,0,0-6.58,7.48C662.92,272.13,660.75,283.42,660.73,295.21Z" transform="translate(-464.46 -73.52)"/><path class="cls-1" d="M858,437.23l-1.3,1.06c-.33,0-.49.14-.56.43l-1.29,1c-.18-.1-.23,0-.22.16l-1.29,1c-.42,0-.63.24-.79.58l-.66.52a.49.49,0,0,0-.58.46l-.9.66a.52.52,0,0,0-.6.44l-1.31,1c-.18-.09-.23,0-.21.16l-.86.64a.52.52,0,0,0-.6.44l-.89.63c-.17-.07-.26,0-.24.17l-1.3.93c-.18-.1-.21,0-.21.15l-.88.59c-.16-.07-.24,0-.23.16l-.88.59c-.15-.08-.24,0-.24.15l-1,.6a.94.94,0,0,0-.83.54l-1,.6a.9.9,0,0,0-.86.52l-1,.6a6.19,6.19,0,0,0-2.3,1.27l-1.07.57a57.12,57.12,0,0,0-7.19,3.76l-3.89,1.94-9,3.3-1.49.34a19.54,19.54,0,0,0-4.06.84l-1.55.24a3.13,3.13,0,0,0-2.17.19l-1.65.13c-.2-2.4.68-4.56,1.58-6.7a36.12,36.12,0,0,0,8.55-1.77,131.08,131.08,0,0,0,30.17-15.95c16.54-11.38,29.64-25.74,38.73-43.69,1.65-3.24,1.69-3.21-1.67-4.31-.65-.21-1.3-.43-1.93-.68-12.16-4.67-24.4-9.12-36.4-14.23-17.7-7.53-35.52-14.76-53.29-22.13-1.89-.78-2.63-2-2.15-3.55.42-1.34,1.77-1.88,3.73-1.54a20.33,20.33,0,0,1,4,1.43c17.53,6.95,35.12,13.78,52.57,20.92,12.46,5.1,25.09,9.76,37.64,14.62,1.33.51,1.83.15,2.3-1.08,4.82-12.57,6.23-25.75,6.94-39.05.06-1.12-.41-1.53-1.5-1.6-2.53-.17-5.07-.39-7.6-.67-9.37-1-18.77-1.88-28.09-3.23-14.12-2-28.19-4.43-42.27-6.75-5.26-.87-10.48-2-15.71-3-2.06-.4-3.18-1.75-2.93-3.43s1.61-2.48,3.67-2.34a7,7,0,0,1,.92.12c9.55,1.94,19.16,3.47,28.84,4.65,7.14.88,14.25,2.06,21.35,3.2,8.64,1.39,17.36,2.16,26,3.29,5.11.66,10.23,1.21,15.34,1.83,1.18.14,2-.1,1.85-1.54-.31-3.59-.48-7.19-1.12-10.73-2.79-15.5-10.09-29.08-18-42.42,0-2.49,1.51-4.66,1.55-7.14,0-.5.52-.42.79-.62l1.29,1.38c0,.34.14.49.45.55l1,1.29c-.11.19,0,.24.16.24l1,1.36a.88.88,0,0,0,.51.81l.59.93c-.1.16,0,.25.14.26.34.56.67,1.12,1,1.67a2.79,2.79,0,0,0,.89,1.58c.19.35.38.71.58,1.06l7.12,14.24c.27.56.53,1.13.8,1.69q2.2,5.81,4.42,11.62l.39,1.45a6.21,6.21,0,0,0,.77,2.62c.11.5.21,1,.32,1.48a3,3,0,0,0,.46,1.85l.24,1.45c-.15.21-.16.39.12.5.08.49.16,1,.25,1.45a1.62,1.62,0,0,0,.17,1.45l.24,1.46a.54.54,0,0,0,.11.8L900,332a4.54,4.54,0,0,0,.21,2.5c.07.78.14,1.55.2,2.32q0,6.45,0,12.91l-.21,2.31a4.25,4.25,0,0,0-.22,2.49l-.15,2.34a1.57,1.57,0,0,0-.18,1.44c-.07.52-.14,1-.2,1.54a2.24,2.24,0,0,0-.14,1.81c-.08.51-.16,1-.23,1.52-.39.31-.3.7-.19,1.1-.07.63-.14,1.27-.22,1.91a6.14,6.14,0,0,0-.5,2.91c-.08.49-.16,1-.25,1.47-.27.1-.26.28-.12.49-.08.46-.16.92-.25,1.37-.24.14-.24.31-.08.51l-.34,1.41q-2.05,7.94-4.85,15.65l-.72,1.73a2.64,2.64,0,0,0-.74,1.66l-.8,1.68-3.39,6.79c-.19.36-.38.72-.58,1.07a6.17,6.17,0,0,0-1.26,2.3l-1,1.76a.89.89,0,0,0-.52.85l-.6.95c-.19,0-.23.07-.16.23-.18.3-.37.6-.56.89-.19,0-.23.07-.17.24l-.58.87c-.2,0-.24.09-.16.26-.2.29-.39.58-.59.86-.18,0-.23.07-.17.23l-.63.9a.53.53,0,0,0-.42.6l-.65.88a2.26,2.26,0,0,0-.2.13l.06.1c-.32.42-.63.85-.94,1.28-.19,0-.24.06-.18.23l-.6.86c-.18,0-.25.05-.15.22l-.94,1.28c-.2,0-.24.07-.18.24l-.91,1.27c-.18,0-.27,0-.17.22l-1,1.26c-.2,0-.23.06-.19.23l-1,1.27c-.29.07-.48.23-.43.56l-1.09,1.3a2.38,2.38,0,0,0-1.12,1.28,66.39,66.39,0,0,1-6.23,6.21,1.24,1.24,0,0,0-.88.81L860.79,435a1.17,1.17,0,0,0-.94.75l-1.29,1.09A.48.48,0,0,0,858,437.23Z" transform="translate(-464.46 -73.52)"/><path class="cls-2" d="M876.85,276.54c-.27.2-.79.12-.79.62,0,2.48-1.54,4.65-1.55,7.14-1.53-.28-.51.81-.58,1.21-.4,2.42-1.73,4.56-2.08,7-.3,2.14-1.54,4-1.65,6.24a5,5,0,0,1-3.1,4.12c-.67.3-1.51.05-1.77,1.22a1.38,1.38,0,0,1-2.17.19,5.29,5.29,0,0,1-.94-4.91c.59-1.7-.63-3.72,1-5.24.21-.19-.32-1.19.36-1.72s1.31-1.25,0-2c-.51-.27-.41-1-.44-1.51a.85.85,0,0,1,.62-.22c1.35.73.38-.56.67-.74l.13-.08-.11.11a.69.69,0,0,1-.35,0l0,0c-.07-.52-1.12-.81-.4-1.5,1.31-1.23.76-3.31,2.1-4.52l.25-.22c-1.22-1.2.13-2.14.25-3.21.09-.78.46-1.92-.85-2.28-.42-.68-.12-1.24.2-1.87,1.27-2.52,1.29-5.25,1.21-8,.95-1,1.19-2.44,2.53-3.23.69-.4-.15-1.62.24-2.43,1.16-2.41,1.14-5.18,2.32-7.57.37-.75-.16-1.46,0-2.18s-1.23-2,.53-2.51c-1-1,.4-1.79.15-2.69-.35-1.24-.37-1.23.51-2-.71-.54-1.45-.75-2,.12-1.16,1.77-3.34,2-4.85,3.28-.92.79-4.15-.43-4.81-1.43-1-1.46.08-2.49.73-3.5,2.62-4.06,5.4-8,7.27-12.52,1.14-2.77,2.19-5.75,5.73-6.64,1.91-.48,2.41-2.47,3.35-3.95.59-.91.92-2,2.06-2.52a3.15,3.15,0,0,1,4.09.87c3.68,3.8,5.58,8.63,7.53,13.38a49.92,49.92,0,0,1,3,9.33c.58,3,1.09,5.88.46,8.86-.29,1.44-.94,2.56-2.72,2.41-.36,0-.79-.37-1.15.2-1.08,1.73-2.44,1.22-3.89.47a14.55,14.55,0,0,1-4.64-4.22.88.88,0,0,0-.93-.43c-.34.07-.45.41-.5.71-.84,4.27-1.86,8.49-2.61,12.78a104.53,104.53,0,0,1-2.62,12.9A4.32,4.32,0,0,0,876.85,276.54Zm17-25.39-.24.13c0,.05.09.13.12.12a.82.82,0,0,0,.25-.12Z" transform="translate(-464.46 -73.52)"/><path class="cls-2" d="M804.49,457.91c-.9,2.14-1.78,4.3-1.58,6.7-1.4,1.88-1.84,4.16-2.39,6.32-1.34,5.27-2.6,10.58-3.5,15.94-.53,3.11-1.08,6.23-1.75,9.69a6.6,6.6,0,0,0,2.45-2.2c1.27-2.23,3.36-3.72,4.94-5.63,2.5-3,5.84-5.21,8-8.49.34-.51.74-1.44,1.64-1.17s.91,1,1.18,1.72c1.36,3.75-.46,6.72-2.38,9.56a108.73,108.73,0,0,1-16.32,19,15.48,15.48,0,0,1-5.39,3.06c-1.82.62-3.31-.27-4.49-1.45s-2.78-2.81-.46-4.58c-1.13-.29-.38-1.78-1.35-2.15s-1-1-.9-1.9a4.12,4.12,0,0,0-1.4-2.95,2.16,2.16,0,0,1-.46-2.69c.16-.32,1.09-1.37-.53-.79-.68.24-.59-.62-.57-1.06a15,15,0,0,0-.06-3.28c-.11-.67.11-1.37-.9-1.46-.3,0-.64-.29-.53-.64.67-2.34-.79-4.13-1.52-6.11-.47-1.26,0-1.7,1.11-2.47a32.58,32.58,0,0,1,4.73-3.31c.08,0,.11-.41,0-.47a2,2,0,0,0-.64-.29s-.12,0-.18,0c.42.3.48-.15.66-.33a.48.48,0,0,0,.09-.35c-.19-.8-.09-1.94.52-2.06a2.59,2.59,0,0,1,2.3,1.28,32.88,32.88,0,0,1,2.18,4.21c.29.63.54,1.43,1.2,1.48s.81-.82.94-1.38c.41-1.67.82-3.4,1.33-5,.79-2.37.48-5,1.84-7.11.78-1.18.28-2,.2-3.08,1.61-1.75,1.79-4,2.31-6.2,1.22-.43,2.21-1,2-2.6-.06-.4.39-.86.6-1.3,1.08-2.21,2-4.5,3.29-6.62.87-1.51.9-3.66,2.39-4.55a10.31,10.31,0,0,0,3.49-3.93,5.77,5.77,0,0,1,1.43,3.7c.16,2.86-1,5.4-1.66,8.08C805.88,453.43,804.62,455.51,804.49,457.91Zm-9.66,38.89c0,.41.26.68.56.6a.8.8,0,0,0,.6-.8.4.4,0,0,0-.47-.39C795.19,496.28,794.87,496.44,794.83,496.8Zm-5.84-15c0-.33-.15-.51-.4-.54-.07,0-.25.25-.24.37a.57.57,0,0,0,.3.38C788.73,482.07,788.89,481.89,789,481.83Z" transform="translate(-464.46 -73.52)"/><path class="cls-2" d="M891.53,301.91l-7.12-14.24c1.37,1.48,2,3.39,2.86,5.15A67.17,67.17,0,0,1,891.53,301.91Z" transform="translate(-464.46 -73.52)"/><path class="cls-2" d="M892.29,390q2.79-7.71,4.85-15.65c-.51,4.26-2,8.26-3.38,12.27C893.36,387.79,893.2,389.08,892.29,390Z" transform="translate(-464.46 -73.52)"/><path class="cls-2" d="M900.42,349.75q0-6.47,0-12.91c.61,1.6.24,3.26.28,4.88.06,2.65,0,5.3,0,8a.47.47,0,0,1-.06.15Z" transform="translate(-464.46 -73.52)"/><path class="cls-2" d="M896.75,315.22q-2.22-5.82-4.42-11.62c2.17,3.55,3.13,7.58,4.56,11.42a1.13,1.13,0,0,1,0,.18Z" transform="translate(-464.46 -73.52)"/><path class="cls-2" d="M813.83,462.87l9-3.3c-2.73,1.69-5.8,2.5-8.81,3.45a1.13,1.13,0,0,1-.18,0Z" transform="translate(-464.46 -73.52)"/><path class="cls-2" d="M826.72,457.63a57.12,57.12,0,0,1,7.19-3.76A31.58,31.58,0,0,1,826.72,457.63Z" transform="translate(-464.46 -73.52)"/><path class="cls-2" d="M886.64,401.88l3.39-6.79c-.59,2.47-2.09,4.51-3.12,6.77,0,.05-.08.12-.13.13S886.69,401.92,886.64,401.88Z" transform="translate(-464.46 -73.52)"/><path class="cls-2" d="M808.28,464.05a19.54,19.54,0,0,1,4.06-.84A7.35,7.35,0,0,1,808.28,464.05Z" transform="translate(-464.46 -73.52)"/><path class="cls-2" d="M898.18,369.12a6.14,6.14,0,0,1,.5-2.91c.32,1-.31,1.89-.28,2.86,0,.05,0,.09-.07.14Z" transform="translate(-464.46 -73.52)"/><path class="cls-2" d="M900,354.55a4.25,4.25,0,0,1,.22-2.49c.36.83,0,1.66,0,2.49,0,0-.06.09-.1.13Z" transform="translate(-464.46 -73.52)"/><path class="cls-2" d="M900.21,334.52A4.54,4.54,0,0,1,900,332,3,3,0,0,1,900.21,334.52Z" transform="translate(-464.46 -73.52)"/><path class="cls-2" d="M897.91,319.29a6.21,6.21,0,0,1-.77-2.62A3.75,3.75,0,0,1,897.91,319.29Z" transform="translate(-464.46 -73.52)"/><path class="cls-2" d="M804.56,464.48a3.13,3.13,0,0,1,2.17-.19A2.42,2.42,0,0,1,804.56,464.48Z" transform="translate(-464.46 -73.52)"/><path class="cls-2" d="M835,453.3a6.19,6.19,0,0,1,2.3-1.27A3.49,3.49,0,0,1,835,453.3Z" transform="translate(-464.46 -73.52)"/><path class="cls-2" d="M884.8,405.25a6.17,6.17,0,0,1,1.26-2.3c0,.9-.69,1.51-1,2.27a.2.2,0,0,1-.12.13S884.84,405.29,884.8,405.25Z" transform="translate(-464.46 -73.52)"/><path class="cls-2" d="M898.69,322.62a3,3,0,0,1-.46-1.85A1.73,1.73,0,0,1,898.69,322.62Z" transform="translate(-464.46 -73.52)"/><path class="cls-2" d="M899.32,361.68a2.24,2.24,0,0,1,.14-1.81c.39.57,0,1.18.06,1.77,0,0,0,.09-.06.14Z" transform="translate(-464.46 -73.52)"/><path class="cls-2" d="M869.59,426.5a2.38,2.38,0,0,1,1.12-1.28A1.44,1.44,0,0,1,869.59,426.5Z" transform="translate(-464.46 -73.52)"/><path class="cls-2" d="M899.66,358.33a1.57,1.57,0,0,1,.18-1.44c.29.47,0,1,0,1.43,0,0,0,.09-.08.14Z" transform="translate(-464.46 -73.52)"/><path class="cls-2" d="M899.47,327.47a1.62,1.62,0,0,1-.17-1.45A1.17,1.17,0,0,1,899.47,327.47Z" transform="translate(-464.46 -73.52)"/><path class="cls-2" d="M883.83,286.61a2.79,2.79,0,0,1-.89-1.58A1.83,1.83,0,0,1,883.83,286.61Z" transform="translate(-464.46 -73.52)"/><path class="cls-2" d="M890.83,393.41a2.64,2.64,0,0,1,.74-1.66A1.85,1.85,0,0,1,890.83,393.41Z" transform="translate(-464.46 -73.52)"/><path class="cls-2" d="M898.9,364.3c-.11-.4-.2-.79.19-1.1.38.36,0,.74,0,1.11,0,0-.07.08-.12.12Z" transform="translate(-464.46 -73.52)"/><path class="cls-2" d="M862.48,433.52a1.24,1.24,0,0,1,.88-.81A.77.77,0,0,1,862.48,433.52Z" transform="translate(-464.46 -73.52)"/><path class="cls-2" d="M859.85,435.71a1.17,1.17,0,0,1,.94-.75C860.67,435.45,860.45,435.81,859.85,435.71Z" transform="translate(-464.46 -73.52)"/><path class="cls-2" d="M883.28,407.86a.89.89,0,0,1,.52-.85C883.85,407.44,883.77,407.78,883.28,407.86Z" transform="translate(-464.46 -73.52)"/><path class="cls-2" d="M852.54,441.48c.16-.34.37-.6.79-.58C853.28,441.38,853,441.55,852.54,441.48Z" transform="translate(-464.46 -73.52)"/><path class="cls-2" d="M899.82,329.73a.54.54,0,0,1-.11-.8C900.11,329.14,900.06,329.42,899.82,329.73Z" transform="translate(-464.46 -73.52)"/><path class="cls-2" d="M881.2,282.17a.88.88,0,0,1-.51-.81C881.18,281.43,881.27,281.75,881.2,282.17Z" transform="translate(-464.46 -73.52)"/><path class="cls-2" d="M838.31,451.43a.9.9,0,0,1,.86-.52C839.07,451.41,838.75,451.52,838.31,451.43Z" transform="translate(-464.46 -73.52)"/><path class="cls-2" d="M840.17,450.31a.94.94,0,0,1,.83-.54C840.94,450.29,840.6,450.38,840.17,450.31Z" transform="translate(-464.46 -73.52)"/><path class="cls-2" d="M878.59,278.47c-.31-.06-.48-.21-.45-.55C878.54,277.91,878.71,278.07,878.59,278.47Z" transform="translate(-464.46 -73.52)"/><path class="cls-2" d="M879.24,413.89a.53.53,0,0,1,.42-.6C879.83,413.71,879.65,413.88,879.24,413.89Z" transform="translate(-464.46 -73.52)"/><path class="cls-2" d="M846.82,445.8a.52.52,0,0,1,.6-.44C847.42,445.77,847.23,445.94,846.82,445.8Z" transform="translate(-464.46 -73.52)"/><path class="cls-2" d="M849.8,443.56a.52.52,0,0,1,.6-.44C850.4,443.55,850.21,443.71,849.8,443.56Z" transform="translate(-464.46 -73.52)"/><path class="cls-2" d="M851.3,442.46a.49.49,0,0,1,.58-.46C851.89,442.42,851.71,442.58,851.3,442.46Z" transform="translate(-464.46 -73.52)"/><path class="cls-2" d="M856.13,438.72c.07-.29.23-.47.56-.43C856.7,438.69,856.55,438.87,856.13,438.72Z" transform="translate(-464.46 -73.52)"/><path class="cls-2" d="M858,437.23a.48.48,0,0,1,.57-.43C858.57,437.21,858.41,437.39,858,437.23Z" transform="translate(-464.46 -73.52)"/><path class="cls-2" d="M871.8,423.92c0-.33.14-.49.43-.56C872.37,423.77,872.21,423.94,871.8,423.92Z" transform="translate(-464.46 -73.52)"/><path class="cls-2" d="M897.81,371.08c-.14-.21-.15-.39.12-.49.38.09.08.33.1.49Z" transform="translate(-464.46 -73.52)"/><path class="cls-2" d="M899.05,324.57c-.28-.11-.27-.29-.12-.5C899.36,324.15,899.34,324.33,899.05,324.57Z" transform="translate(-464.46 -73.52)"/><path class="cls-2" d="M897.48,373c-.16-.2-.16-.37.08-.51.38.07.08.32.13.47Z" transform="translate(-464.46 -73.52)"/><path class="cls-2" d="M874.38,420.6c-.1-.2,0-.25.17-.22C874.71,420.62,874.63,420.68,874.38,420.6Z" transform="translate(-464.46 -73.52)"/><path class="cls-2" d="M875.46,419.11c-.06-.17,0-.27.18-.24l.06.24Z" transform="translate(-464.46 -73.52)"/><path class="cls-2" d="M854.62,439.88c0-.18,0-.26.22-.16V440Z" transform="translate(-464.46 -73.52)"/><path class="cls-2" d="M873.23,422.09c0-.17,0-.27.19-.23C873.57,422.12,873.5,422.19,873.23,422.09Z" transform="translate(-464.46 -73.52)"/><path class="cls-2" d="M876.58,417.59c-.1-.17,0-.23.15-.22a2,2,0,0,0,.08.22Z" transform="translate(-464.46 -73.52)"/><path class="cls-2" d="M877.33,416.51c-.06-.17,0-.26.18-.23C877.66,416.52,877.62,416.61,877.33,416.51Z" transform="translate(-464.46 -73.52)"/><path class="cls-2" d="M848.28,444.72c0-.16,0-.25.21-.16v.24Z" transform="translate(-464.46 -73.52)"/><path class="cls-2" d="M878.45,415l-.06-.1a2.26,2.26,0,0,1,.2-.13l.09.22Z" transform="translate(-464.46 -73.52)"/><path class="cls-2" d="M845.69,446.6c0-.19.07-.24.24-.17C846,446.72,845.94,446.77,845.69,446.6Z" transform="translate(-464.46 -73.52)"/><path class="cls-2" d="M844.18,447.68c0-.15,0-.25.21-.15a1.69,1.69,0,0,0,0,.23Z" transform="translate(-464.46 -73.52)"/><path class="cls-2" d="M843.07,448.43c0-.19.07-.23.23-.16v.23Z" transform="translate(-464.46 -73.52)"/><path class="cls-2" d="M842,449.17c0-.2.09-.23.24-.15,0,.08,0,.16,0,.24Z" transform="translate(-464.46 -73.52)"/><path class="cls-2" d="M880.29,412.39c-.06-.16,0-.25.17-.23l.06.23Z" transform="translate(-464.46 -73.52)"/><path class="cls-2" d="M881.05,411.3c-.08-.17,0-.26.16-.26a1.69,1.69,0,0,0,.08.24Z" transform="translate(-464.46 -73.52)"/><path class="cls-2" d="M881.93,283.36c-.19,0-.24-.1-.14-.26l.23,0Z" transform="translate(-464.46 -73.52)"/><path class="cls-2" d="M881.79,410.17c-.06-.17,0-.26.17-.24,0,.08,0,.16.07.23Z" transform="translate(-464.46 -73.52)"/><path class="cls-2" d="M879.73,280c-.17,0-.27-.05-.16-.24l.24,0Z" transform="translate(-464.46 -73.52)"/><path class="cls-2" d="M882.52,409c-.07-.16,0-.25.16-.23,0,.07.05.15.08.23Z" transform="translate(-464.46 -73.52)"/><path class="cls-2" d="M778.89,492l-.17.33a1.41,1.41,0,0,1-.18-.37c0-.1.08-.21.13-.31Z" transform="translate(-464.46 -73.52)"/><path class="cls-2" d="M866.48,265.91v0Z" transform="translate(-464.46 -73.52)"/><path class="cls-3" d="M864.5,288l.11-.11-.13.08Z" transform="translate(-464.46 -73.52)"/><path class="cls-3" d="M893.82,251.15l.13.13a.82.82,0,0,1-.25.12s-.08-.07-.12-.12Z" transform="translate(-464.46 -73.52)"/><path class="cls-3" d="M794.83,496.8c0-.36.36-.52.69-.59a.4.4,0,0,1,.47.39.8.8,0,0,1-.6.8C795.09,497.48,794.86,497.21,794.83,496.8Z" transform="translate(-464.46 -73.52)"/><path class="cls-3" d="M789,481.83c-.1.06-.26.24-.34.21a.57.57,0,0,1-.3-.38c0-.12.17-.37.24-.37C788.84,481.32,789,481.5,789,481.83Z" transform="translate(-464.46 -73.52)"/><path class="cls-1" d="M840.34,428.91c0,2.15-2.21,3.37-4.35,2.41a14.44,14.44,0,0,1-3.13-2.32c-10.22-8.51-19.41-18.11-28.93-27.36-10-9.69-19.32-20-29.33-29.63a14.53,14.53,0,0,1-1.57-1.84c-1.09-1.5-1.08-3.07,0-4.05s2.63-.85,4,.43c2.67,2.51,5.35,5,8,7.58,17.64,17.54,35.13,35.24,53.71,51.8A3.89,3.89,0,0,1,840.34,428.91Z" transform="translate(-464.46 -73.52)"/><path class="cls-2" d="M864.15,288l-.2.27-.08-.23h.31Z" transform="translate(-464.46 -73.52)"/></svg>