<svg id="Capa_1" data-name="Capa 1" xmlns="http://www.w3.org/2000/svg" viewBox="0 0 445.6 596.62"><defs><style>.cls-1{fill:#060606;}.cls-2{fill:#f32542;}.cls-3{fill:#fefefe;}</style></defs><path class="cls-1" d="M720,581.16c0,4.75,1.09,9.27,2.1,13.8,2,8.83,4.12,17.65,5.58,26.55,3,18,6.52,35.93,10.15,53.82a7.17,7.17,0,0,1,.07,3.32,1.89,1.89,0,0,1-1.9,1.5,1.68,1.68,0,0,1-1.8-1.55c-.88-6.84-3-13.42-4.15-20.2-2.07-12-4.11-23.95-6.45-35.87-2.29-11.67-5.11-23.24-7.4-34.91-1.87-9.58-2.32-19.34-2.44-29.08-.24-19.43-.75-38.86-2-58.24-1.4-21.3-4-42.46-10.36-62.95-2-6.44-3.91-12.91-7.06-18.93-2.22-4.22-5.48-7.33-10.06-8.52-6.08-1.56-11.16.81-15.52,5-.67.65-1.23,1.42-1.94,2-2.13,1.81-4.38,1.16-5.14-1.53-.65-2.26-1.11-4.56-1.67-6.85-.05-.24-.16-.47-.22-.71-1.22-4.84-3-9.49-8.37-10.89a18.71,18.71,0,0,0-16.05,3.16,21.21,21.21,0,0,0-3.5,3.33,2.59,2.59,0,0,1-2.79,1,2.62,2.62,0,0,1-1.85-2.52,98.44,98.44,0,0,0-2.11-13.21,33.07,33.07,0,0,0-4.95-10.33c-3.93-5.75-10.69-4.53-15.07-.53-3.83,3.49-5.93,8.18-7.2,13.2-.1.42-.16.85-.25,1.27-.27,1.43-1.1,2.29-2.57,2.06s-1.95-1.43-1.86-2.79c.2-3,.52-6.06.66-9.1.7-15.43.17-30.77-3.85-45.8a23.06,23.06,0,0,0-3.54-7.92c-1.87-2.5-3-2.59-5.19-.29a34.07,34.07,0,0,0-5.76,8.63c-3.66,7.51-5.7,15.56-7.77,23.59a139.59,139.59,0,0,0-3.82,48.17c1.22,13,2.7,26,4.57,39,2.9,20.09,9.34,39.09,17.63,57.52C594.92,525,604,544.55,614,563.64c4.14,7.89,7.23,16.3,11.05,24.35s4.48,16.8,5.15,25.49c.72,9.4,1.6,18.78,2.75,28.14s2.4,18.7,3.63,28c.15,1.16.47,2.3.68,3.46s.28,2.32-1.2,2.69-2.11-.55-2.46-1.69a50.15,50.15,0,0,1-1.53-8.41c-1.52-11.68-3.1-23.36-4.38-35.07-.88-8-1.43-16.06-1.92-24.11A52.28,52.28,0,0,0,621,588c-3.53-7.78-7.08-15.55-10.95-23.18-.43-.85-.76-1.4-1.93-1s-2.57-.07-3.84-.33c-11.64-2.43-22.3-7.25-32.66-13A226.26,226.26,0,0,1,544.71,533a2.61,2.61,0,0,0-3.13-.3c-19.77,9.21-38.79,19.76-56.16,33-19.11,14.54-36.2,31.17-49.68,51.21-6.5,9.65-10.9,20.42-15.88,30.86-1.55,3.25-3,6.51-4.55,9.77a13.57,13.57,0,0,0-1.12,3.13,2.29,2.29,0,0,1-2.76,2.11c-1.28-.21-1.91-1.52-1.32-3.12.74-2,1.66-4,2.58-6,5.33-11.32,10.06-22.93,16.39-33.75,7.57-12.94,17.49-24,27.91-34.7,17.84-18.33,38.49-32.75,60.81-44.91,6.79-3.7,13.91-6.79,20.89-10.15.83-.4,1.77-.61,1.8-1.82,0-.24.35-.67.54-.67,1.79,0,1.66-1.43,2-2.54,3.65-13.72,8.73-27,13.28-40.4,3.27-9.62,6.48-19.25,8.23-29.32.61-3.51-.39-6.76-.74-10.12-.19-1.83-.55-3.64-.87-5.75-1.62,1.94-3.6,2-5.6,1.86a81.83,81.83,0,0,1-11.47-1.18c-5.72-1.13-10.43-4.27-14.73-8-9-7.73-13.91-17.69-15.27-29.46-.58-5-1-10-2.06-14.92a19.68,19.68,0,0,0-5.54-10.33,48.74,48.74,0,0,1-11.3-16.86,36.36,36.36,0,0,0-8.1-11.7c-8.56-8.73-14.62-18.86-17.17-30.94-2.33-11-1.6-21.93.76-32.85a108.49,108.49,0,0,1,9.81-26.59c2.64-5.14,2.56-9.36-1.2-13.93a37.88,37.88,0,0,1-8.43-19A57.11,57.11,0,0,1,476.9,194c7.5-17,16.9-32.71,30.66-45.46a55.21,55.21,0,0,0,13.67-19.24c7.65-18.09,22-27.9,40.57-32.52a150.1,150.1,0,0,1,30-4.35,77.72,77.72,0,0,0,23.44-4.58c16.8-6.11,33.72-5.48,50.4-.11a45.86,45.86,0,0,0,27.48.46c17.8-5,34.74-2.35,50.7,6.86,3.76,2.17,7.52,4.33,11.27,6.51a37.82,37.82,0,0,0,20.05,5.27,92,92,0,0,1,20,1.39,32,32,0,0,1,19.53,12A77,77,0,0,0,826,132a28.6,28.6,0,0,1,10.82,21.23c.21,4.18-.28,8.24-2.37,11.87-2.88,5-5.85,10-9.14,14.66-4.56,6.52-11.61,10.78-21.18,13.39a143.79,143.79,0,0,1,6.2,15.65,153.58,153.58,0,0,1,7.31,36c1,10.73,2.41,21.29,7,31.2a51.44,51.44,0,0,1,2.26,7.26,1.91,1.91,0,0,0,1.4,1.51,13.21,13.21,0,0,1,7.49,5.8A98.32,98.32,0,0,1,846.36,312c3.28,9.83,6.55,19.65,7.85,30a137.22,137.22,0,0,1-.21,38.77c-1.67,10.66-3.27,21.35-7.33,31.4-10.28,25.46-26.36,46-51.11,58.94a72.89,72.89,0,0,1-16.93,6.56,11.65,11.65,0,0,1-7.88-.77c-2.23-1.06-4.74-.93-7.12-1-14.08-.4-28.15-1-42.15-2.64-2.22-.26-4.42-.67-6.61-1.1-1-.2-1.4-.1-1.27,1.13.73,6.53,1.35,13.08,2,19.62,1.14,11,1.4,22.05,1.77,33.09.48,14.76.8,29.53,1.16,44.3a8.67,8.67,0,0,0,2.18,5.89c8.36,9.48,14.84,20.28,21.72,30.82a343,343,0,0,1,28.73,53.22,21.41,21.41,0,0,1,1.1,3,1.88,1.88,0,0,1-1.28,2.51,2,2,0,0,1-2.68-1.35,297.63,297.63,0,0,0-26.58-50.33c-5.78-8.73-10.72-18-17-26.44C723.2,585.36,721.57,583.27,720,581.16Zm-61.66-186c-.17-.22-.51-.27-.59-.1s.22.25.4.3c4.65,4.43,5.81,10.43,7.26,16.31.77-.15,1.07-.76,1.51-1.15A20.82,20.82,0,0,1,679.8,405c8-.37,13.72,3.68,17.72,10.25,3.84,6.29,5.84,13.36,8,20.34a223.31,223.31,0,0,1,7.16,30.72,2.25,2.25,0,0,0,2.16,2.21c4.17.69,8.35,1.24,12.55,1.55,9.47.71,18.95,1.21,28.44,1.43,2.8.06,5.6,0,8.8,0a7.21,7.21,0,0,1-.86-.57C751.4,459,738.24,448,725.42,436.67c-11.65-10.33-23.38-20.57-35.07-30.86a13,13,0,0,0-5.48-3.08c-7.89-2.08-15.82-4.09-23.54-6.8C660.34,395.59,659.3,395.39,658.29,395.13Zm35-162.38c-1.28-.69-2.87-.78-3.85-2a70.16,70.16,0,0,1,9.81-7.36,223.73,223.73,0,0,1,61.27-25.18c10.1-2.52,20.16-5.21,30.44-6.88,4.57-.74,9.25-1,13.7-2.22,8.59-2.34,15.42-7.27,19.81-15.19,1.78-3.2,3.66-6.33,5.6-9.43a18.43,18.43,0,0,0,2.59-11.77A24.9,24.9,0,0,0,823.24,135a75.47,75.47,0,0,1-11.74-12.16,28.22,28.22,0,0,0-17.71-10.71,97.74,97.74,0,0,0-19.47-1.23,39.7,39.7,0,0,1-20.45-5.29c-3.12-1.77-6.27-3.5-9.33-5.39-15.75-9.72-32.51-13-50.6-8.09a74.23,74.23,0,0,1-12.36,2.61c-5.66.53-10.91-1.28-16.19-2.86C649.21,87,633,85.74,616.81,91.7a84.49,84.49,0,0,1-25.82,5,127.89,127.89,0,0,0-33.81,5.85c-12.43,4-22.64,10.84-29.11,22.5a76.6,76.6,0,0,0-3.87,7.61,47.71,47.71,0,0,1-12.26,17.32c-9.65,8.7-17.14,19.06-23.54,30.27-5.92,10.38-11.25,21-12.15,33.21-.72,9.74.85,18.91,6.72,27,1.45,2,2.83,4.07,4.14,6.17A9.27,9.27,0,0,1,488,255c-.52,1.45-1.06,2.91-1.7,4.31-4.17,9-8.09,18.07-10.12,27.87-2.47,11.93-2.75,23.76,1,35.47A59.4,59.4,0,0,0,492,346.38a37.38,37.38,0,0,1,8.44,12.14,48.65,48.65,0,0,0,11.22,16.69,22.79,22.79,0,0,1,6.09,11.51,93.58,93.58,0,0,1,1.85,12.88c.71,8.53,3.21,16.38,8.36,23.29,7.59,10.2,17.82,14.82,30.43,14.41,1.36,0,2.47-1.52,4.05-.49,0-.52,0-.82-.07-1.13-.87-8.82-2-17.62-2.75-26.46a143.37,143.37,0,0,1,3.55-48c2.51-10,4.94-20,10.11-29a1.71,1.71,0,0,0,.24-1.23,47.24,47.24,0,0,1-.17-15.19c2.86-17.45,10.44-32.23,25.58-42.31a57.89,57.89,0,0,1,38.68-9.65c3.74.36,7.57.27,11.08,2.05,4.71,2.38,9.77,3.88,14.68,5.75,1.38.53,1.8.19,2.1-1.12a80.81,80.81,0,0,1,11.1-25.42,7.33,7.33,0,0,1,3.57,1.62,83,83,0,0,0-11.42,25.07c-.29,1.12-.28,1.66,1,2.24,5.59,2.64,11.25,5.21,16.63,8.25A358.93,358.93,0,0,0,723.26,300c2,.84,2,.86,2.2-1.33.25-2.4.44-4.81.77-7.21.19-1.38.91-2.54,2.46-2.59,3.68-.11,7.25-1,10.89-1.37,8.94-.91,17.94-1.09,26.89-2.14,14.61-1.72,29.36-1.34,44-2.31a72.75,72.75,0,0,1,12.21.34c-.24-.8-.41-1.38-.57-2-1.55-5.49-4.3-10.53-5.75-16.08-2-7.79-2.39-15.8-3.26-23.73a163.19,163.19,0,0,0-12-46.44c-.42-1-.86-1-1.8-.92-7.14.88-14.17,2.32-21.2,3.89-22.13,4.91-43.8,11.15-64,21.64C706.84,223.6,699.49,227.23,693.32,232.75Zm116.73,223.6c.52-.44.94-.78,1.35-1.14a112.35,112.35,0,0,0,20.52-23.94c.67-1,1.89-2.19,1.76-3.13-.11-.79-1.82-1.36-2.84-2-18.84-12-37.38-24.6-57.86-33.83-1-.44-1.54-1.16-1.17-2.21s1.39-1.31,2.45-1,2,.67,3,1.1c13.82,6.23,26.7,14.15,39.53,22.14,5.63,3.5,11.14,7.2,16.71,10.81,2.48,1.61,2.47,1.6,3.9-1A98.56,98.56,0,0,0,844.43,405c3-9.25,4.35-18.81,5.69-28.38a126.66,126.66,0,0,0-.79-38c-1.66-10.26-5.06-20.05-8.68-29.73a74.28,74.28,0,0,0-9-16.83,8.5,8.5,0,0,0-4.41-3.26,34.69,34.69,0,0,0-8.58-1.55,162.61,162.61,0,0,0-18.6.38c-8.55.45-17.11.65-25.66,1.14-5.69.33-11.36,1-17,1.49-7.78.64-15.63.4-23.36,1.79-3.18.58-4.13,1.48-4.27,4.76-.05,1.3-.21,2.59-.32,3.89a2.34,2.34,0,0,0,.86,2.41,1.74,1.74,0,0,1-.06,3c-1.39.76-1.44,1.83-1.56,3a71.42,71.42,0,0,1-2.19,11.67c-2.35,8.65-6.25,16.68-9.84,24.83-8.06,18.29-15,37.11-25.27,54.36-.73,1.23-.08,1.75.71,2.42,17.22,14.71,34.24,29.64,51.32,44.51,8.57,7.46,16.7,15.4,25.26,22.86,2,1.71,3.9,3.23,6.7,3,1.21-.09,2.29.8,3.6.37a98.34,98.34,0,0,0,25-12.09c3.83-2.6,3.79-2.57.32-5.75-18.57-17-37.27-33.91-56.36-50.36-1.78-1.54-3.44-3.22-5.16-4.84-.8-.75-1.26-1.7-.5-2.62s1.91-.63,2.82.06c.55.41,1,.89,1.54,1.35,2.09,1.85,4.13,3.76,6.27,5.56q27.48,23.16,53.72,47.71C807.87,453.44,809.34,454.49,810.05,456.35ZM630.89,268.06c-17.83.55-32.35,7.64-43,21.89-7.73,10.32-13.25,30.05-10.73,36.72l1.14-1.22c4-4.11,8.12-3.85,11.58.72a27.34,27.34,0,0,1,4.28,9.2,122.66,122.66,0,0,1,4.2,29,2.42,2.42,0,0,0,2,2.59,31.72,31.72,0,0,1,7.85,3.32,2.22,2.22,0,0,0,1.94.19c5.62-1.48,10.15.48,13.3,5a12,12,0,0,0,6.72,4.79c1.35.44,2.73.81,4.05,1.34,9.32,3.68,18.56,7.49,28.25,10.22,7.44,2.09,14.91,4.11,22.29,6.45,1.13.36,2.75,1.13,3.62-.39,2-3.61,4.24-7.14,5.95-10.93,7.89-17.5,15.06-35.31,22.79-52.87,3.78-8.61,6.7-17.46,7.57-26.88.09-1,.29-1.72-1-2.21-14.44-5.63-28.23-12.6-41.85-20-7.34-4-14.76-7.83-22.8-10.27-.42-.12-.84-.55-1.46,0,2.2,3.17,2.64,7,3.78,10.57a1.6,1.6,0,0,1-.88,2.17,1.79,1.79,0,0,1-2.32-.58,5.19,5.19,0,0,1-.79-2.26,29.57,29.57,0,0,0-3.94-9.77,8.47,8.47,0,0,0-5.35-4.24c-2.39-.64-4.73-1.44-7.16-1.93a4.54,4.54,0,0,0-2.91.11c-5.51,2.6-9.92,6.26-12.29,12.07a66.44,66.44,0,0,0-4.36,19.9c-1.18,14.22.92,28.07,4.8,41.72A61.85,61.85,0,0,0,638,365.73c3.18,3.82,5.46,4,9.05.63a38,38,0,0,0,10.38-15c.48-1.35,1.26-2.47,2.86-1.85s1.32,1.88.88,3.16a39.88,39.88,0,0,1-13.34,18.41c-3.28,2.57-6.75,2.41-10.15,0a18.06,18.06,0,0,1-3.81-3.8,62.83,62.83,0,0,1-10-18.35c-5.63-16.58-8.07-33.59-6.33-51.09a67.64,67.64,0,0,1,3.88-17.17A27.45,27.45,0,0,1,630.89,268.06Zm-64,195.33c-1.28,5-2.69,9.92-4.3,14.77-4.29,12.86-8.66,25.69-12.94,38.55-1.18,3.52-1.92,7.2-3.31,10.62-.71,1.73-.2,2.25,1,3.06,3.11,2,6.11,4.24,9.24,6.24,12.08,7.69,24.46,14.83,38,19.69a93,93,0,0,0,12.6,3.51,5.57,5.57,0,0,0-.28-.92c-4.63-8.14-8.3-16.75-12.39-25.15-7.72-15.86-15-31.92-21.12-48.48A181.47,181.47,0,0,1,566.88,463.39Zm64.39-65.83c4.72-4.21,10.16-5.5,16.44-5.82-6.68-2.92-12.67-6.18-19.5-7.95C630,388.24,630.56,392.73,631.27,397.56Zm-26.83-24.94a34.65,34.65,0,0,0-5.92-2.3v8.49A20.16,20.16,0,0,1,604.44,372.62Z" transform="translate(-409.88 -83.53)"/><path class="cls-2" d="M693.32,232.75c8.78,3.78,16.53,9.2,23.92,15.17,1.68,1.35,3.7,2.5,3.54,5.27,0,.78,1.63,1.46,1.45,2.44-.42,2.26,2,4.38.25,6.64,1,1.48-.19,1.51-1.12,2.16-1.17.82.91.69.68,1.65-1.36.19-2.89.55-4.36-.08A136,136,0,0,1,697,255.48c-2.9-1.87-6.11-3.25-9.15-4.91-1.9-1-3.72-2.17-5.61-3.21a3.79,3.79,0,0,0-2.09-.67,7.33,7.33,0,0,0-3.57-1.62,27.17,27.17,0,0,0-4.63-2.18c-3-1.32-6.29-2-9.08-3.82-1.13-.74-2.44-.13-3.74-.56a86.9,86.9,0,0,0-12.94-3.36c-6.19-1-12.31-2.37-18.62-2.85a121.34,121.34,0,0,0-21.4.36c-.43,0-.86.11-1.29.18s-.83,0-.85.46a1.18,1.18,0,0,0,.44.75c.89.77,1.8,1.52,2.73,2.24a20.38,20.38,0,0,1,6.42,8.09c.48,1.13,1.28,1.79,0,2.88-.45.38.24.64.68.68,1.4.13.79.87.29,1.28a8,8,0,0,1-7.74,1.85c-3.62-1-7.14-2.56-10.82-3.14-6.28-1-12.46-3-18.94-2.31-2,.2-3.77-.55-5.63-1a1.29,1.29,0,0,1-.92-.83,2.45,2.45,0,0,0-2.37-1.46,3.62,3.62,0,0,1-2.6-1.5,3.68,3.68,0,0,0-2.06-1.44c-1.35-.3-2.53-2.31-2.34-3.72,0-.43.16-.81-.2-1.2a3.88,3.88,0,0,1-.38-5.49,38.32,38.32,0,0,1,7.42-8c4.05-3.27,7.7-7,11.65-10.34q5.5-4.69,11.33-9a7.49,7.49,0,0,1,3.51-1.1c1.08-.17,1.94.68,1.56,1.68-.53,1.37,0,1.26.93,1,.33-.09.8,0,.81.24.1,1.85,2.71,2.68,2,4.81-.27.77.59.94.61,1.72.06,2.51-1.64,3.95-2.86,5.7a8.74,8.74,0,0,0-1.9,3c3.15-.76,6.22-1.12,9.21-1.8,8.29-1.89,16.64-1.47,25-1A114.54,114.54,0,0,1,645.53,218c4.51.91,9.05,1.61,13.5,2.92,4.25,1.25,8.62,2.17,12.87,3.45a146.66,146.66,0,0,1,15.8,6,3.07,3.07,0,0,0,1.77.45C690.45,232,692,232.06,693.32,232.75Z" transform="translate(-409.88 -83.53)"/><path class="cls-3" d="M658.1,395.33c-.18-.05-.51,0-.4-.3s.42-.12.59.1Z" transform="translate(-409.88 -83.53)"/><path class="cls-1" d="M842.16,378.74c-3.87-.67-7.59-2.09-11.42-3.08-19.25-5-38.13-11.2-57.16-17-5.86-1.78-11.86-3.09-17.81-4.58-1.21-.3-2.52-.58-2.12-2.17s1.64-1.46,2.89-1.19c14.09,3.13,28,7,41.68,11.51,14.12,4.62,28.59,8.07,42.8,12.41a7.61,7.61,0,0,0,1.63.33c1.36.12,2.36.63,2.15,2.17S843.35,378.66,842.16,378.74Z" transform="translate(-409.88 -83.53)"/></svg>